<svg width="70" height="70" viewBox="0 0 70 70" fill="none" xmlns="http://www.w3.org/2000/svg">
<path d="M33.1351 0.00185522C32.96 0.00658817 32.8007 0.0243752 32.6588 0.0590046C32.3733 0.128264 32.1233 0.291211 32.0302 0.554813C31.9372 0.818439 31.9987 1.10877 32.1635 1.4278C32.1714 1.45012 32.1951 1.47711 32.2108 1.49982C31.8394 1.61921 31.4498 1.75153 31.061 1.88331C30.6525 1.84694 30.2432 1.80997 29.8552 1.78162C29.8552 1.7567 29.871 1.72538 29.8789 1.70112C29.9578 1.35357 29.9578 1.05599 29.8 0.821783C29.6478 0.587565 29.3655 0.489063 29.0714 0.489142C28.4846 0.489142 27.7055 0.792065 26.715 1.30064C26.5233 1.39918 26.2923 1.5423 26.0864 1.65659C25.8507 1.66132 25.5778 1.65185 25.3617 1.6629C24.2506 1.71796 23.4257 1.84582 22.917 2.13964C22.6623 2.28656 22.4683 2.51095 22.4533 2.79014C22.4454 3.06932 22.5834 3.32976 22.8255 3.59105C22.8413 3.60927 22.8728 3.62971 22.8886 3.64825C22.5653 3.86774 22.2293 4.10486 21.8942 4.34112C21.4912 4.42133 21.089 4.50032 20.7081 4.58267C20.7081 4.55687 20.7081 4.5228 20.7081 4.49793C20.6844 4.1421 20.5985 3.85755 20.3863 3.67584C20.1734 3.49411 19.8761 3.4785 19.5938 3.56139C19.0299 3.72716 18.3683 4.23716 17.5615 5.00433C17.4062 5.15303 17.2232 5.35556 17.0576 5.52344C16.8328 5.59388 16.5687 5.66425 16.366 5.73533C15.314 6.10161 14.5585 6.45624 14.1531 6.88164C13.9505 7.09433 13.8282 7.36383 13.8921 7.63595C13.9552 7.90806 14.1689 8.1167 14.4749 8.29911C14.4985 8.31229 14.5301 8.32431 14.5537 8.33724C14.3053 8.63827 14.0482 8.95943 13.7935 9.28014C13.4292 9.47084 13.0648 9.66113 12.7218 9.84797C12.7218 9.82383 12.7139 9.7905 12.6981 9.76747C12.5767 9.43217 12.4111 9.18274 12.1556 9.06825C11.9008 8.95376 11.613 9.02365 11.3662 9.18264C10.8717 9.50062 10.3812 10.1768 9.82206 11.1405C9.71481 11.3269 9.59731 11.5709 9.48611 11.7782C9.28975 11.9096 9.05632 12.0507 8.88046 12.1766C7.97513 12.8244 7.35054 13.3767 7.08084 13.8992C6.94598 14.1605 6.90261 14.4571 7.03352 14.7001C7.17232 14.9431 7.43571 15.0818 7.78113 15.1705C7.80479 15.1768 7.84422 15.1796 7.8663 15.1854C7.71331 15.5446 7.55716 15.9258 7.4018 16.3061C7.10686 16.5912 6.81271 16.8783 6.53669 17.1538C6.52881 17.1317 6.50515 17.1001 6.48938 17.0796C6.27882 16.792 6.05091 16.5985 5.7741 16.5605C5.4973 16.5226 5.23784 16.671 5.04621 16.8931C4.66137 17.3376 4.38062 18.1249 4.11644 19.2069C4.06912 19.417 4.02101 19.6856 3.97212 19.9168C3.82149 20.0976 3.63775 20.2977 3.50447 20.4676C2.81838 21.3445 2.37281 22.0516 2.26161 22.6288C2.20641 22.9175 2.25373 23.2122 2.45009 23.4064C2.6504 23.6007 2.94298 23.6623 3.29943 23.6501C3.32309 23.6501 3.35463 23.6414 3.38302 23.6399C3.33571 24.0269 3.29628 24.4357 3.25448 24.8434C3.05181 25.2004 2.84913 25.5582 2.66144 25.9007C2.63778 25.8841 2.61412 25.8588 2.59835 25.8438C2.31524 25.6273 2.04238 25.5078 1.76636 25.5494C1.49035 25.5912 1.28531 25.8053 1.16229 26.0727C0.918603 26.6075 0.870498 27.4412 0.921758 28.5539C0.929644 28.7694 0.969075 29.0394 0.984847 29.2743C0.890214 29.4912 0.770344 29.7363 0.689905 29.9375C0.278249 30.9724 0.0527049 31.7762 0.108697 32.3615C0.140241 32.6541 0.258533 32.9246 0.506158 33.0543C0.753783 33.184 1.05267 33.16 1.39098 33.0464C1.41464 33.0386 1.44619 33.0212 1.46985 33.0126C1.53293 33.3979 1.60864 33.8033 1.68435 34.2075C1.58971 34.6068 1.49666 35.0067 1.41307 35.3878C1.38941 35.3775 1.36575 35.3586 1.3342 35.3499C1.0022 35.2218 0.704889 35.1834 0.450955 35.301C0.198599 35.4188 0.0613797 35.6817 0.0195832 35.9726C-0.06401 36.5546 0.125257 37.3687 0.487232 38.4221C0.558207 38.6267 0.666247 38.8769 0.74984 39.0979C0.726182 39.3317 0.678865 39.5995 0.654418 39.8141C0.551109 40.9232 0.558995 41.7579 0.777441 42.3038C0.88627 42.5766 1.08185 42.8021 1.3555 42.8567C1.62915 42.9112 1.90753 42.8055 2.2001 42.6025C2.22376 42.5883 2.24742 42.5631 2.26319 42.5473C2.43353 42.8979 2.61964 43.2643 2.80418 43.6301C2.82784 44.0405 2.8515 44.4522 2.87516 44.842C2.8515 44.842 2.81207 44.8294 2.79077 44.827C2.43511 44.7978 2.14096 44.8436 1.93118 45.0283C1.72062 45.2127 1.66463 45.5044 1.70643 45.7954C1.79002 46.3773 2.2001 47.1052 2.84361 48.0138C2.96821 48.1902 3.14328 48.3997 3.28602 48.588C3.32545 48.8207 3.357 49.0903 3.39643 49.302C3.60857 50.3955 3.85225 51.196 4.2158 51.6582C4.39639 51.8893 4.64638 52.0495 4.92476 52.0248C5.20236 52.0003 5.43894 51.8189 5.6637 51.5417C5.67947 51.5219 5.69524 51.4904 5.71101 51.4699C5.97362 51.7581 6.25595 52.0568 6.53669 52.3555C6.67312 52.7425 6.80955 53.1318 6.9452 53.4977C6.92154 53.5055 6.88211 53.5055 6.86081 53.5079C6.51225 53.5796 6.24175 53.7082 6.0927 53.9444C5.94287 54.1805 5.97204 54.4758 6.0927 54.7432C6.33638 55.2779 6.93337 55.8603 7.80715 56.5505C7.97591 56.684 8.20225 56.8344 8.39151 56.9743C8.49325 57.1883 8.59892 57.4406 8.69907 57.6333C9.2101 58.6224 9.67065 59.3198 10.1485 59.6609C10.3883 59.8316 10.6722 59.9159 10.9324 59.8136C11.1919 59.7113 11.3693 59.4689 11.5058 59.1398C11.5136 59.1169 11.5136 59.0829 11.5294 59.0592C11.863 59.2618 12.2179 59.4704 12.572 59.678C12.8125 60.0108 13.0538 60.344 13.2872 60.6569C13.2636 60.6687 13.232 60.6789 13.2084 60.6908C12.8937 60.8584 12.669 61.0555 12.5917 61.3244C12.5128 61.593 12.6232 61.8713 12.818 62.0935C13.2029 62.5376 13.941 62.9277 14.9741 63.3436C15.1744 63.4245 15.4354 63.5059 15.657 63.5872C15.814 63.762 15.9851 63.9721 16.1341 64.1275C16.9038 64.9323 17.5402 65.4733 18.0946 65.6658C18.3722 65.762 18.6703 65.7631 18.8903 65.5917C19.1112 65.4203 19.2121 65.1388 19.2507 64.7843C19.2507 64.7599 19.2507 64.7252 19.2507 64.6996C19.6269 64.7999 20.0259 64.8992 20.4234 64.9984C20.7475 65.2502 21.0724 65.5035 21.3847 65.7379C21.369 65.7553 21.3374 65.7734 21.3216 65.7908C21.0669 66.0403 20.9084 66.293 20.9108 66.5726C20.9108 66.8521 21.0977 67.0875 21.3445 67.2463C21.839 67.5641 22.6568 67.7296 23.7648 67.8375C23.9785 67.858 24.2498 67.8627 24.484 67.8777C24.6859 68.0023 24.9106 68.1575 25.0983 68.2655C26.0636 68.8206 26.8262 69.1591 27.4129 69.1872C27.7063 69.2014 27.9925 69.117 28.1558 68.8906C28.319 68.6638 28.3372 68.3665 28.2741 68.0155C28.2741 67.9903 28.2583 67.9587 28.2504 67.9328C28.6408 67.9233 29.0508 67.9052 29.4609 67.8886C29.8426 68.0387 30.2251 68.1904 30.5894 68.3272C30.5737 68.3493 30.5579 68.3753 30.5421 68.3974C30.3678 68.7085 30.2874 68.9963 30.3678 69.2641C30.4491 69.5318 30.692 69.7047 30.9735 69.7874C31.5374 69.9529 32.3685 69.8817 33.4608 69.673C33.6729 69.6328 33.9347 69.5613 34.1642 69.5098C34.3921 69.5729 34.6508 69.6563 34.8614 69.707C35.9433 69.9675 36.7714 70.0785 37.3423 69.94C37.6278 69.8706 37.8778 69.7077 37.9717 69.4441C38.0639 69.1806 37.9953 68.8902 37.8376 68.5712C37.8297 68.5491 37.806 68.5223 37.7903 68.4994C38.1617 68.38 38.5521 68.2477 38.9401 68.1159C39.3494 68.1522 39.7579 68.1892 40.1467 68.2176C40.1467 68.2429 40.1309 68.2737 40.123 68.2981C40.0433 68.6457 40.0441 68.9432 40.2019 69.1774C40.3549 69.4117 40.6372 69.5102 40.9305 69.5101C41.5181 69.5101 42.2964 69.2072 43.2869 68.6986C43.4793 68.6001 43.7096 68.4569 43.9154 68.3426C44.152 68.3347 44.4249 68.3505 44.6402 68.3347C45.7513 68.2795 46.5762 68.1518 47.0857 67.858C47.3396 67.711 47.5336 67.4866 47.5486 67.2075C47.5565 66.9283 47.4185 66.6678 47.1764 66.4066C47.1606 66.3884 47.129 66.3679 47.1133 66.3498C47.4358 66.1303 47.7718 65.8931 48.1077 65.6569C48.5099 65.5766 48.9129 65.4978 49.2938 65.4154C49.2938 65.4414 49.2938 65.4753 49.2938 65.5002C49.3175 65.856 49.4034 66.1405 49.6155 66.3222C49.8277 66.5039 50.125 66.5195 50.4073 66.4366C50.9712 66.2708 51.6328 65.7609 52.4396 64.9937C52.5957 64.845 52.7779 64.6425 52.9435 64.4746C53.169 64.4044 53.4324 64.3338 53.6359 64.2627C54.6871 63.8965 55.4426 63.5418 55.8488 63.1164C56.0506 62.9037 56.1737 62.6343 56.109 62.3621C56.0459 62.09 55.8322 61.8792 55.5262 61.6968C55.5104 61.6842 55.471 61.6732 55.4474 61.6605C55.695 61.3598 55.9505 61.038 56.2052 60.7175C56.5695 60.5269 56.9331 60.3366 57.2761 60.1498C57.284 60.1743 57.284 60.2073 57.2998 60.2302C57.4213 60.5655 57.5853 60.815 57.8408 60.9295C58.0955 61.044 58.3849 60.9736 58.6318 60.8151C59.1262 60.4971 59.6175 59.8209 60.1759 58.8573C60.2839 58.671 60.4006 58.4266 60.5126 58.2194C60.7082 58.0881 60.9416 57.9471 61.1175 57.8212C62.0228 57.1733 62.6482 56.6189 62.9171 56.0964C63.052 55.8351 63.0953 55.5406 62.9644 55.2976C62.8264 55.0546 62.5622 54.9138 62.2168 54.825C62.1932 54.8172 62.1616 54.8172 62.1324 54.8124C62.2854 54.4532 62.4408 54.072 62.5961 53.6916C62.8903 53.4069 63.186 53.1214 63.462 52.8462C63.4699 52.8675 63.4857 52.8983 63.5094 52.918C63.7191 53.2055 63.9478 53.3991 64.2246 53.4371C64.5014 53.4749 64.7609 53.3246 64.9525 53.1024C65.3374 52.6579 65.6181 51.8727 65.8823 50.7907C65.9296 50.5806 65.9777 50.312 66.0266 50.0808C66.178 49.8999 66.3618 49.6999 66.4943 49.53C67.1811 48.653 67.6236 47.9459 67.7348 47.3688C67.79 47.0801 67.7505 46.7854 67.5486 46.5911C67.3475 46.3969 67.0558 46.3353 66.7001 46.3475C66.6764 46.3475 66.637 46.3562 66.6149 46.3577C66.6622 45.9707 66.7025 45.562 66.7443 45.1542C66.9469 44.7973 67.1496 44.4393 67.3373 44.0969C67.3531 44.1135 67.3846 44.1387 67.4004 44.1537C67.6835 44.3702 67.9564 44.4898 68.2324 44.4482C68.5092 44.4064 68.7142 44.1922 68.8357 43.9248C69.0801 43.39 69.1282 42.5543 69.077 41.4415C69.0691 41.2259 69.0297 40.9564 69.0139 40.7212C69.1085 40.505 69.2284 40.2606 69.3088 40.0601C69.7205 39.0252 69.9468 38.2214 69.8908 37.6362C69.8672 37.3435 69.7378 37.0729 69.491 36.9432C69.2434 36.8135 68.9461 36.8376 68.6077 36.9511C68.5841 36.959 68.5525 36.9764 68.5289 36.9851C68.4658 36.6009 68.3869 36.197 68.3128 35.7942C68.4074 35.3941 68.5029 34.9938 68.5865 34.612C68.6101 34.6214 68.6338 34.6388 68.6653 34.6483C68.9981 34.7763 69.2946 34.8147 69.5478 34.6971C69.8017 34.5794 69.9381 34.3143 69.9807 34.0233C70.0635 33.4414 69.8743 32.6294 69.5123 31.5761C69.4413 31.3716 69.3333 31.1212 69.2497 30.9001C69.2733 30.6665 69.3207 30.3987 69.3443 30.184C69.4484 29.075 69.4397 28.2381 69.2221 27.6922C69.1133 27.4193 68.9177 27.1961 68.644 27.1413C68.3696 27.0869 68.092 27.1926 67.7986 27.3956C67.7829 27.4098 67.7513 27.4351 67.7355 27.4509C67.5644 27.1003 67.3791 26.7339 67.193 26.3681C67.1693 25.9577 67.1457 25.546 67.122 25.1562C67.1457 25.1562 67.1772 25.1688 67.2048 25.1711C67.5597 25.2003 67.857 25.1546 68.066 24.9698C68.2765 24.7854 68.3325 24.4917 68.2907 24.2007C68.2071 23.6188 67.7955 22.8929 67.152 21.9844C67.0274 21.8085 66.8539 21.5999 66.7111 21.4123C66.6717 21.1788 66.6402 20.9085 66.6015 20.6962C66.3886 19.6028 66.1449 18.8022 65.7821 18.3399C65.6008 18.1089 65.3508 17.9486 65.0732 17.9733C64.794 17.9978 64.5574 18.1793 64.3335 18.4565C64.3177 18.4762 64.3019 18.5078 64.2861 18.5283C64.0227 18.2393 63.7396 17.94 63.4581 17.6405C63.3217 17.254 63.1844 16.8659 63.0488 16.5005C63.0804 16.4926 63.1119 16.4926 63.1356 16.4903C63.4849 16.4185 63.753 16.29 63.9029 16.0538C64.0519 15.8177 64.0243 15.5202 63.9029 15.2529C63.6584 14.7182 63.0614 14.1357 62.1876 13.4455C62.0181 13.3114 61.791 13.1602 61.6009 13.0196C61.5 12.807 61.3935 12.5564 61.2941 12.3649C60.7815 11.3757 60.3241 10.6783 59.8455 10.3372C59.6073 10.1666 59.3202 10.0824 59.0608 10.1846C58.8005 10.2868 58.6255 10.5293 58.489 10.8584C58.4812 10.8814 58.4733 10.9149 58.4654 10.9389C58.1318 10.7359 57.7761 10.5282 57.422 10.3202C57.1815 9.98755 56.941 9.65393 56.7076 9.34128C56.7312 9.32977 56.7628 9.31922 56.7864 9.30739C57.1011 9.13977 57.325 8.94259 57.4023 8.67383C57.4812 8.40506 57.3708 8.12678 57.176 7.9047C56.7912 7.46049 56.0538 7.07053 55.0207 6.65459C54.8212 6.57392 54.5602 6.49202 54.3386 6.41092C54.1816 6.23525 54.0097 6.02452 53.8607 5.8685C53.091 5.06374 52.4553 4.52476 51.9002 4.33236C51.6226 4.23613 51.3253 4.23509 51.1045 4.4065C50.8836 4.5779 50.7827 4.85938 50.7441 5.21377C50.7441 5.23853 50.7441 5.27276 50.7441 5.2985C50.3671 5.19809 49.9688 5.09907 49.5706 4.99976C49.2473 4.74785 48.9216 4.49488 48.6101 4.26033C48.6258 4.24313 48.6574 4.22444 48.6732 4.20732C48.9271 3.95789 49.088 3.70507 49.0864 3.42548C49.0864 3.14591 48.8995 2.91054 48.6526 2.75167C48.1582 2.43396 47.3396 2.26848 46.2324 2.16053C46.0171 2.13971 45.7458 2.13347 45.51 2.11816C45.3097 1.99396 45.0857 1.84022 44.8981 1.73251C43.9336 1.17736 43.171 0.838976 42.5843 0.810854C42.2909 0.796734 42.0046 0.880821 41.8414 1.10748C41.6774 1.33417 41.66 1.63165 41.7223 1.98259C41.7223 2.00735 41.7381 2.03962 41.746 2.0652C41.3556 2.07499 40.9439 2.09281 40.5339 2.10969C40.1522 1.95958 39.7689 1.80797 39.4038 1.67108C39.4117 1.64884 39.4432 1.62305 39.4511 1.60112C39.6246 1.29001 39.705 1.00226 39.6246 0.734542C39.5442 0.466791 39.3013 0.293894 39.0189 0.211146C38.4551 0.0456586 37.6247 0.116787 36.5309 0.32559C36.3195 0.366135 36.0561 0.436993 35.8258 0.488708C35.5987 0.426155 35.3393 0.342187 35.1303 0.291647C34.318 0.0961992 33.6508 -0.0137086 33.1272 0.00137376L33.1351 0.00185522ZM33.1351 0.501901C33.531 0.49559 34.1114 0.575375 34.7975 0.728572C34.1406 0.90127 33.434 1.10838 32.6848 1.34306C32.6611 1.30015 32.6217 1.24678 32.5988 1.20748C32.4719 0.950664 32.4663 0.791756 32.4908 0.720147C32.5144 0.6486 32.5752 0.589117 32.7684 0.542151C32.8654 0.518644 32.9884 0.504236 33.1351 0.501949V0.501901ZM38.0087 0.631125C38.392 0.610931 38.6901 0.633499 38.8809 0.688322C39.0726 0.744487 39.1301 0.804181 39.1522 0.87691C39.1759 0.94964 39.1601 1.1096 39.0189 1.36001C38.9953 1.39835 38.9558 1.44969 38.9275 1.4914C38.1893 1.22104 37.4938 0.98116 36.8463 0.777296C37.284 0.701253 37.6814 0.648242 38.0087 0.631125ZM29.0658 0.984998C29.2654 0.984967 29.3355 1.02725 29.3765 1.09092C29.4239 1.15458 29.4554 1.31121 29.3923 1.59097C29.3765 1.63396 29.3529 1.69567 29.345 1.74354C28.558 1.69219 27.823 1.65912 27.1432 1.64609C28.0083 1.21909 28.7046 0.985085 29.0745 0.984998H29.0658ZM35.8172 1.00204C36.6515 1.23592 37.5766 1.53111 38.616 1.90892C38.5316 2.00949 38.4385 2.11376 38.3328 2.22673C37.5016 2.28045 36.6555 2.34424 35.7833 2.41951C34.9158 2.3027 34.072 2.19929 33.2431 2.10598C33.143 1.98799 33.0554 1.87787 32.9766 1.77329C34.0349 1.44509 34.9726 1.19605 35.8172 1.00204ZM42.5606 1.30714C42.9297 1.32489 43.611 1.59044 44.4541 2.05721C43.7759 2.03781 43.0393 2.0371 42.2538 2.0509C42.2459 2.00247 42.2144 1.93962 42.2065 1.89621C42.1592 1.61374 42.1986 1.45988 42.2381 1.39833C42.2854 1.33673 42.3571 1.29766 42.5551 1.30719L42.5606 1.30714ZM32.4663 1.93434C32.49 1.96353 32.5137 1.99767 32.5373 2.02755C32.4521 2.01848 32.3615 2.00673 32.2771 1.9979C32.3402 1.97825 32.4048 1.95362 32.4655 1.93429L32.4663 1.93434ZM39.1183 2.09323C39.1814 2.11555 39.2445 2.14253 39.3052 2.16525C39.2192 2.16998 39.127 2.17725 39.0402 2.1823C39.0639 2.1535 39.0954 2.12149 39.1191 2.09332L39.1183 2.09323ZM27.211 2.142C27.8088 2.15493 28.4704 2.19026 29.1549 2.23309C29.1076 2.35345 29.043 2.48042 28.972 2.61874C28.1913 2.9044 27.3971 3.20368 26.5817 3.52138C25.7158 3.65412 24.8767 3.79237 24.0542 3.93664C23.9249 3.85202 23.8105 3.77065 23.7048 3.69298C24.6275 3.08026 25.4563 2.57453 26.2118 2.15047C26.5423 2.14574 26.8427 2.13416 27.211 2.14205V2.142ZM25.1598 2.17589C24.5786 2.52674 23.9588 2.92538 23.305 3.3624C23.2656 3.3277 23.2143 3.287 23.1843 3.25436C22.9888 3.04403 22.9391 2.89373 22.9422 2.81792C22.9422 2.74204 22.9896 2.66754 23.1591 2.5679C23.4785 2.38323 24.1969 2.23932 25.1598 2.17589ZM29.688 2.26698C29.7511 2.27172 29.8213 2.27922 29.886 2.28403C29.8056 2.3125 29.7204 2.34626 29.6399 2.37512C29.6557 2.34081 29.6794 2.30042 29.6873 2.26708L29.688 2.26698ZM31.1107 2.38778C31.7187 2.44261 32.3417 2.50515 32.9845 2.57637C33.016 2.60895 33.0554 2.64679 33.0846 2.68013C32.4474 2.74789 31.8102 2.81338 31.1706 2.8899C30.5311 2.96634 29.8986 3.05345 29.2654 3.1378C29.289 3.09836 29.3127 3.05122 29.3363 3.01282C29.9443 2.79193 30.5358 2.58431 31.1123 2.38778H31.1107ZM42.4123 2.54666C43.5203 2.53034 44.4911 2.55609 45.3562 2.60815C46.0904 3.06777 46.8948 3.61115 47.786 4.26717C47.6771 4.33982 47.5573 4.41333 47.424 4.49177C46.6101 4.30866 45.7782 4.13156 44.9201 3.95783C44.1221 3.60207 43.3445 3.26519 42.578 2.94291C42.5149 2.80037 42.4597 2.67015 42.4123 2.54666ZM41.8792 2.55716C41.8871 2.59037 41.9029 2.63099 41.9266 2.6652C41.8477 2.63246 41.7641 2.59579 41.686 2.56352C41.7491 2.56115 41.8209 2.55879 41.8848 2.55721L41.8792 2.55716ZM40.4526 2.61012C41.0189 2.83371 41.5985 3.06848 42.1939 3.31782C42.2097 3.35758 42.2412 3.40626 42.257 3.44705C41.6269 3.33239 40.9976 3.21497 40.3627 3.10805C39.7263 3.00106 39.0946 2.90523 38.4606 2.80718C38.4921 2.77563 38.5316 2.74061 38.5639 2.70974C39.2121 2.66911 39.8383 2.63597 40.4495 2.61012H40.4526ZM46.4059 2.68215C47.3625 2.79134 48.0746 2.96985 48.3853 3.16943C48.5525 3.2772 48.588 3.35201 48.5888 3.42793C48.5888 3.5039 48.5336 3.65302 48.3285 3.85383C48.297 3.88452 48.241 3.92102 48.2031 3.9534C47.5715 3.48606 46.969 3.0601 46.4059 2.68215ZM35.7691 2.91941C36.3053 2.99183 36.8353 3.0594 37.3794 3.13978C37.1759 3.32139 36.9709 3.50459 36.728 3.70549C36.4276 3.95423 36.094 4.22041 35.7336 4.5001C35.3866 4.20415 35.064 3.92115 34.7762 3.65889C34.5428 3.4462 34.3456 3.25502 34.1492 3.06351C34.6973 3.00916 35.2296 2.96621 35.7691 2.91941ZM33.512 3.1313C33.7865 3.40843 34.0877 3.70141 34.4434 4.02547C34.7115 4.26965 35.0136 4.53339 35.3306 4.8052C34.3409 5.55705 33.1398 6.41726 31.7101 7.39021C30.0918 6.78154 28.7212 6.23063 27.5817 5.73326C27.8253 5.39463 28.0564 5.0653 28.2591 4.76495C28.528 4.36707 28.7535 4.01125 28.9538 3.67795C29.7093 3.57535 30.4672 3.47264 31.2298 3.38133C31.9932 3.29004 32.7534 3.20991 33.512 3.1313ZM38.015 3.23939C38.7705 3.35412 39.5268 3.46982 40.2847 3.59745C41.0425 3.72497 41.7941 3.86373 42.544 4.00217C42.7294 4.34498 42.936 4.71015 43.186 5.12089C43.3737 5.43012 43.5897 5.7696 43.8161 6.11891C42.6552 6.5612 41.2602 7.04615 39.6159 7.57668C38.2351 6.53644 37.0758 5.6205 36.1224 4.82215C36.4504 4.56665 36.7651 4.31735 37.0442 4.08691C37.4133 3.7809 37.7296 3.50259 38.015 3.23939ZM28.3182 3.76062C28.1731 3.99298 28.0249 4.22554 27.8482 4.48734C27.6306 4.81061 27.3853 5.16192 27.118 5.53196C26.7016 5.3455 26.312 5.16445 25.9626 4.99374C25.6779 4.85548 25.4351 4.72609 25.1937 4.59754C25.7048 4.39076 26.2032 4.20116 26.7079 4.00429C27.2433 3.9224 27.7717 3.8374 28.3182 3.76062ZM23.2608 3.98946C23.2845 4.01202 23.3239 4.03652 23.3578 4.05932C23.2719 4.07486 23.1804 4.0902 23.0952 4.10597C23.1504 4.06921 23.2072 4.02563 23.2608 3.98941V3.98946ZM19.9447 4.0065C19.992 4.01124 20.0323 4.0285 20.0614 4.05311C20.1166 4.10241 20.1923 4.24344 20.2097 4.52985C20.2097 4.57347 20.2097 4.63939 20.2097 4.68878C19.4408 4.86115 18.7247 5.03729 18.0694 5.21637C18.7791 4.56314 19.3816 4.14248 19.7349 4.03828C19.8312 4.0102 19.8982 4.00209 19.9494 4.0065H19.9447ZM43.1749 4.11454C43.7175 4.21737 44.2419 4.32712 44.7735 4.43447C45.2671 4.65495 45.7553 4.86907 46.2553 5.0998C46.0084 5.21667 45.7576 5.33334 45.4682 5.45791C45.1102 5.6116 44.7151 5.77265 44.2908 5.93889C44.0416 5.55691 43.8113 5.19547 43.6095 4.86249C43.4446 4.59263 43.309 4.35355 43.1749 4.11454ZM23.9398 4.45994C23.9793 4.48298 24.025 4.50867 24.0629 4.53202C23.4714 4.77656 22.8784 5.01778 22.2869 5.27149C21.6947 5.52523 21.1111 5.78688 20.5251 6.04698C20.533 6.00304 20.5488 5.94982 20.5567 5.90712C21.0772 5.52435 21.5842 5.1582 22.0811 4.80746C22.6812 4.68846 23.2987 4.57336 23.9383 4.45994H23.9398ZM48.2142 4.58493C48.2615 4.62287 48.3191 4.66732 48.3703 4.70573C48.2883 4.68632 48.2 4.66574 48.1164 4.64641C48.1401 4.62598 48.1874 4.60512 48.2142 4.58493ZM51.5248 4.75869C51.5721 4.75632 51.6446 4.76832 51.7393 4.80106C52.0879 4.92213 52.6691 5.37043 53.3481 6.05757C52.7014 5.8474 51.9948 5.63704 51.2354 5.42821C51.2354 5.37836 51.2354 5.31113 51.2354 5.26721C51.2669 4.98194 51.3466 4.8455 51.4065 4.79894C51.438 4.77567 51.4696 4.76063 51.5232 4.75874L51.5248 4.75869ZM24.6007 4.84343C24.9414 5.03217 25.3144 5.22805 25.7466 5.43885C26.0715 5.59754 26.4374 5.76744 26.8175 5.93889C26.0793 6.93963 25.1669 8.10236 24.0692 9.43921C22.3453 9.31161 20.8745 9.16711 19.6419 9.01119C19.7799 8.6179 19.9116 8.23757 20.0212 7.89247C20.1671 7.43399 20.2822 7.02987 20.3808 6.6529C21.078 6.3414 21.7751 6.02978 22.4817 5.727C23.1883 5.4243 23.8949 5.13266 24.6007 4.84343ZM47.5155 5.02142C48.1456 5.16463 48.7552 5.30894 49.3466 5.4558C49.8285 5.83083 50.319 6.22126 50.8221 6.6296C50.8221 6.67227 50.8379 6.72547 50.8458 6.76946C50.2725 6.4816 49.7023 6.19313 49.1227 5.91135C48.543 5.62975 47.9642 5.35957 47.3846 5.08709C47.424 5.06556 47.4737 5.04259 47.5115 5.02137L47.5155 5.02142ZM20.8832 5.0532C20.8122 5.10345 20.7404 5.15927 20.671 5.21001C20.671 5.17325 20.6868 5.12895 20.6868 5.0935C20.7499 5.08009 20.8185 5.06674 20.8816 5.05325L20.8832 5.0532ZM35.7186 5.13375C36.6302 5.90116 37.739 6.77966 39.0402 7.76532C38.0292 8.08624 36.8242 8.44166 35.6287 8.79511C34.4536 8.38537 33.2676 7.97284 32.2731 7.60432C33.6209 6.68142 34.7707 5.85704 35.7186 5.13375ZM20.1671 5.21001C20.1513 5.34043 20.1277 5.47911 20.104 5.63167C19.4345 6.12613 18.7571 6.63772 18.0654 7.17206C17.2713 7.54352 16.5056 7.91237 15.758 8.28236C15.6097 8.23763 15.4764 8.19368 15.3526 8.14885C16.0655 7.30046 16.7185 6.58225 17.3242 5.9622C18.1514 5.70775 19.0899 5.45518 20.1695 5.21001H20.1671ZM46.8357 5.3753C47.5265 5.69777 48.2197 6.02245 48.9097 6.35839C49.6021 6.69447 50.2859 7.03747 50.9664 7.38178C51.0469 7.76268 51.1407 8.17182 51.2653 8.63618C51.3584 8.9863 51.4719 9.37226 51.591 9.77185C50.3513 9.86894 48.8758 9.94262 47.1472 9.98803C46.1149 8.60112 45.2592 7.39488 44.57 6.36056C44.9588 6.20723 45.3318 6.05664 45.6646 5.91347C46.1062 5.72371 46.4863 5.54741 46.8357 5.3753ZM50.543 5.7609C50.606 5.77723 50.6723 5.79334 50.7338 5.80967C50.7338 5.84501 50.7417 5.88953 50.7417 5.92618C50.6707 5.87278 50.606 5.81371 50.5406 5.7609H50.543ZM51.248 5.94949C52.315 6.24602 53.2392 6.54134 54.0554 6.83513C54.6303 7.48341 55.2486 8.23143 55.9205 9.11293C55.7951 9.15181 55.6619 9.19183 55.512 9.22944C54.7818 8.82392 54.0326 8.41815 53.2566 8.00898C52.591 7.44211 51.938 6.8992 51.2921 6.37322C51.2764 6.22025 51.2606 6.07999 51.2448 5.94949H51.248ZM27.2812 6.14443C28.3726 6.62371 29.6841 7.15246 31.2109 7.73147C30.3316 8.32438 29.274 9.00481 28.2275 9.68076C26.9847 9.61923 25.7292 9.55708 24.6725 9.48375C25.7048 8.21907 26.5754 7.10533 27.2812 6.14443ZM16.3179 6.28213C15.8589 6.78282 15.3771 7.33934 14.8723 7.94331C14.825 7.92028 14.7643 7.89612 14.7257 7.8734C14.4796 7.7266 14.3874 7.59773 14.3708 7.52382C14.355 7.4499 14.3708 7.36722 14.5096 7.22295C14.7651 6.95551 15.4125 6.61437 16.3179 6.28218V6.28213ZM44.0984 6.54279C44.7577 7.53655 45.5723 8.69188 46.5439 10.005C45.4832 10.028 44.2277 10.0282 42.9825 10.0304C41.9699 9.30607 40.9487 8.57693 40.0985 7.94331C41.6505 7.43785 42.9849 6.96943 44.0984 6.54279ZM19.7925 6.91356C19.7215 7.17719 19.6443 7.44135 19.5488 7.74201C19.4313 8.11353 19.2949 8.51945 19.1427 8.94976C18.69 8.88815 18.2673 8.82421 17.8825 8.7591C17.5718 8.70641 17.3021 8.65106 17.0332 8.59588C17.4661 8.25338 17.8912 7.9289 18.3186 7.59796C18.8083 7.36905 19.291 7.14075 19.7925 6.91356ZM55.042 7.20384C55.93 7.57852 56.5617 7.95238 56.8038 8.23147C56.9339 8.38214 56.9489 8.46358 56.9284 8.53657C56.9047 8.60954 56.8085 8.73646 56.5554 8.87138C56.5159 8.89196 56.4528 8.91214 56.4071 8.93281C55.9323 8.30552 55.4765 7.72582 55.042 7.20384ZM51.5398 7.66787C52.0319 7.91939 52.5027 8.17369 52.9821 8.42641C53.3922 8.77672 53.8015 9.11963 54.2163 9.48158C53.9458 9.52394 53.6738 9.56672 53.3607 9.6045C52.9743 9.6512 52.5492 9.69381 52.095 9.73377C51.9625 9.29699 51.8434 8.88554 51.7432 8.50903C51.662 8.20366 51.6013 7.93509 51.5398 7.66787ZM31.7755 7.94543C32.6808 8.28376 33.7715 8.66355 34.8306 9.03661C33.9639 9.28933 32.964 9.56419 32.0018 9.83333C31.0035 9.79871 29.9664 9.76846 29.0635 9.72737C30.0051 9.11483 30.9759 8.48783 31.7755 7.94543ZM39.5229 8.1319C40.2949 8.71081 41.2342 9.38127 42.1434 10.0367C41.2405 10.0343 40.2026 10.0178 39.2035 10.0049C38.2563 9.69063 37.2714 9.36815 36.4197 9.07475C37.4945 8.75265 38.6025 8.42662 39.5229 8.13185V8.1319ZM15.0096 8.5578C15.0411 8.57097 15.0884 8.58295 15.12 8.59588C15.0411 8.63454 14.9607 8.6739 14.885 8.71245C14.9323 8.66291 14.9693 8.60675 15.0096 8.55775V8.5578ZM15.7895 8.8163C15.8368 8.82829 15.8865 8.83836 15.9315 8.85019C15.4315 9.25208 14.9315 9.65153 14.4339 10.0621C13.9378 10.4726 13.4513 10.8891 12.9623 11.3038C12.9623 11.2593 12.9623 11.2049 12.9544 11.1619C13.348 10.645 13.7336 10.1494 14.1145 9.67017C14.6539 9.38828 15.2107 9.10393 15.7895 8.8163ZM16.534 9.0006C16.9141 9.0854 17.3273 9.16838 17.7997 9.2485C18.1577 9.30901 18.5536 9.36707 18.9668 9.42438C18.5402 10.5928 17.9921 11.966 17.3155 13.5583C15.6263 13.9216 14.176 14.1994 12.9505 14.3973C12.9742 13.9807 12.9978 13.5795 12.9978 13.2171C13.0057 12.7366 12.9978 12.3138 12.9978 11.9246C13.5782 11.4297 14.161 10.935 14.7533 10.4457C15.3455 9.95589 15.9425 9.47722 16.5379 9.0006H16.534ZM35.6184 9.31629C36.2462 9.53423 36.8692 9.75194 37.549 9.98163C36.8794 9.9694 36.3148 9.96893 35.6042 9.95197C34.8937 9.93493 34.3298 9.90809 33.6603 9.88837C34.3495 9.69148 34.982 9.50398 35.6184 9.31629ZM19.4708 9.49005C20.6529 9.64207 22.0606 9.78246 23.6883 9.90748C23.0116 10.7239 22.1899 11.6743 21.3761 12.6175C20.1655 12.9091 18.9432 13.2055 17.9077 13.4333C18.5426 11.9278 19.0638 10.6115 19.4708 9.49005ZM11.8299 9.5071C11.8772 9.49676 11.9198 9.50397 11.9545 9.5199C12.0255 9.55098 12.1351 9.6653 12.2321 9.93516C12.24 9.9765 12.2557 10.0423 12.2715 10.0899C11.5822 10.4719 10.9443 10.8435 10.3662 11.2001C10.863 10.373 11.3204 9.80032 11.6319 9.6004C11.7155 9.54645 11.7778 9.51736 11.8283 9.50715L11.8299 9.5071ZM56.2423 9.54104C56.2817 9.59145 56.3211 9.64891 56.359 9.69992C56.288 9.65796 56.2044 9.61487 56.1295 9.57277C56.161 9.56149 56.2091 9.55267 56.2423 9.54099V9.54104ZM55.4466 9.7614C56.012 10.077 56.5561 10.3877 57.0829 10.6958C57.4394 11.1914 57.8006 11.7046 58.1696 12.2383C58.1696 12.2813 58.1618 12.3358 58.1539 12.3803C57.6862 11.9428 57.2209 11.5044 56.7446 11.0708C56.2675 10.6369 55.7872 10.2143 55.307 9.7889C55.3543 9.77951 55.404 9.77114 55.4466 9.76136V9.7614ZM54.6966 9.90969C55.2683 10.414 55.8409 10.9202 56.4095 11.4374C56.9781 11.9543 57.5372 12.4772 58.0932 12.999C58.0616 13.3873 58.0458 13.8086 58.0301 14.2894C58.0222 14.6511 58.0222 15.0531 58.0222 15.4696C56.8061 15.2134 55.3693 14.8687 53.699 14.425C53.0989 12.8026 52.6186 11.4041 52.2487 10.2169C52.6635 10.1794 53.0618 10.1395 53.4214 10.0961C53.8985 10.0386 54.3149 9.97641 54.6982 9.90969H54.6966ZM24.29 9.95418C25.2529 10.0236 26.4058 10.0793 27.5265 10.1385C26.7662 10.6256 25.8846 11.1726 25.0368 11.7023C24.0707 11.9502 23.0676 12.21 22.1915 12.4248C22.9209 11.5729 23.6749 10.6992 24.29 9.95418ZM28.3624 10.1851C29.0264 10.2174 29.6865 10.2497 30.4041 10.2784C29.7574 10.4558 29.2149 10.6154 28.5288 10.7996C27.8403 10.984 27.2907 11.1168 26.6416 11.287C27.2497 10.9031 27.8048 10.5451 28.3624 10.1851ZM13.0262 10.2466C12.9789 10.3146 12.9205 10.3898 12.8669 10.4585C12.8669 10.4221 12.859 10.377 12.8511 10.342C12.9063 10.3113 12.9702 10.2774 13.0262 10.2466ZM51.7393 10.2594C52.0918 11.3986 52.5508 12.7371 53.1131 14.2704C52.0902 13.9936 50.8844 13.6402 49.6897 13.2915C48.9216 12.3101 48.144 11.3216 47.5068 10.4734C49.1376 10.426 50.5508 10.3549 51.7393 10.2594ZM32.0618 10.3335C33.2187 10.3733 34.3014 10.4172 35.5916 10.4479C36.8818 10.4787 37.9685 10.4856 39.127 10.5009C40.2255 10.8652 41.2523 11.214 42.4802 11.6069C43.7088 11.9999 44.7474 12.3126 45.8531 12.6536C46.8057 13.3136 47.6929 13.9381 48.7623 14.6623C49.8308 15.3864 50.7409 15.9783 51.707 16.618C52.4356 17.5192 53.1091 18.3685 53.9301 19.364C54.7518 20.3599 55.4576 21.1838 56.2044 22.0698C56.6492 23.14 57.0577 24.1457 57.5656 25.3329C58.0742 26.5201 58.519 27.5098 58.9859 28.5704C59.1113 29.7224 59.2209 30.8013 59.3739 32.0835C59.5269 33.367 59.6743 34.444 59.8249 35.5944C59.6207 36.7346 59.4228 37.8008 59.2083 39.0736C58.9945 40.345 58.8337 41.4157 58.6539 42.5591C58.1357 43.5975 57.6452 44.5675 57.0806 45.7309C56.5167 46.893 56.0601 47.878 55.5649 48.9261C54.777 49.7751 54.0334 50.5646 53.1659 51.5196C52.2984 52.4748 51.5831 53.29 50.8135 54.1555C49.8182 54.7485 48.8821 55.2988 47.7804 55.9713C46.6787 56.6428 45.7632 57.2227 44.7821 57.8359C43.6591 58.1242 42.6063 58.387 41.3588 58.7216C40.112 59.0558 39.0694 59.3548 37.9535 59.6666C36.7974 59.6264 35.7146 59.583 34.4245 59.5522C33.1343 59.5215 32.0492 59.5143 30.8907 59.4994C29.7914 59.1348 28.7638 58.7866 27.5351 58.3933C26.3065 58.0003 25.2687 57.6876 24.1622 57.3465C23.2096 56.6866 22.3224 56.0621 21.253 55.3379C20.1845 54.6138 19.2744 54.0218 18.3091 53.3822C17.5805 52.481 16.907 51.6317 16.0852 50.6361C15.2627 49.6394 14.5569 48.8149 13.8093 47.9283C13.3645 46.8585 12.956 45.8541 12.4481 44.6674C11.9403 43.4815 11.4955 42.4936 11.0294 41.434C10.904 40.2805 10.7952 39.1986 10.6414 37.9146C10.4892 36.6313 10.341 35.5559 10.1903 34.4058C10.3954 33.2656 10.5933 32.1994 10.807 30.9267C11.0208 29.6552 11.1824 28.5845 11.3614 27.4411C11.8796 26.4026 12.3701 25.4327 12.9347 24.2693C13.4986 23.108 13.9536 22.1237 14.4489 21.0762C15.2367 20.2266 15.9811 19.4364 16.8494 18.4806C17.7185 17.5242 18.4337 16.7069 19.2042 15.8405C20.1987 15.248 21.1339 14.7007 22.2356 14.0288C23.3358 13.3575 24.2498 12.7773 25.2316 12.1643C26.3546 11.8758 27.409 11.6133 28.6573 11.2786C29.9041 10.9442 30.9467 10.6455 32.0618 10.3336V10.3335ZM46.9035 10.4925C47.4816 11.2659 48.1937 12.1747 48.8829 13.0605C48.0162 12.8037 47.025 12.4945 46.0692 12.2002C45.2498 11.6324 44.3973 11.0457 43.6615 10.5242C44.7845 10.5187 45.9382 10.5158 46.9035 10.4925ZM40.7846 10.5264C41.5015 10.5319 42.16 10.5311 42.824 10.5311C43.3626 10.9162 43.8997 11.2982 44.4856 11.7092C43.8476 11.509 43.3066 11.3511 42.6308 11.135C41.9542 10.9186 41.4218 10.7344 40.7846 10.5268V10.5264ZM12.3827 10.6005C12.4064 10.7302 12.4221 10.8701 12.4379 11.0243C11.934 11.6887 11.4253 12.3704 10.9111 13.0795C10.2558 13.6591 9.62491 14.2284 9.01215 14.7937C8.85759 14.7913 8.71721 14.7874 8.58709 14.7789C9.03187 13.7637 9.45693 12.8898 9.86307 12.1239C10.5862 11.6462 11.4159 11.1404 12.3835 10.6005H12.3827ZM59.3715 10.6407C59.4188 10.6532 59.4803 10.6846 59.5623 10.7424C59.8628 10.9571 60.2957 11.5506 60.7539 12.4015C60.1924 12.0173 59.5718 11.6171 58.9023 11.2023C58.918 11.1552 58.9338 11.0904 58.9496 11.0497C59.06 10.7848 59.1751 10.6749 59.2453 10.6471C59.2848 10.6332 59.3242 10.6281 59.3707 10.6407H59.3715ZM58.1413 11.323C58.1965 11.3567 58.2603 11.3912 58.3148 11.4247C58.3069 11.4597 58.3069 11.5048 58.2911 11.5413C58.2438 11.4701 58.1902 11.3935 58.1413 11.323ZM58.7682 11.7044C59.7082 12.2896 60.5118 12.8348 61.2113 13.3465C61.5812 14.1305 61.9629 15.0238 62.3588 16.0586C62.2271 16.061 62.0883 16.061 61.9337 16.0539C61.3478 15.4596 60.7453 14.8593 60.1167 14.2487C59.6373 13.517 59.1633 12.8123 58.6917 12.1256C58.7154 11.9716 58.739 11.833 58.7706 11.7039L58.7682 11.7044ZM12.5026 12.3401C12.5026 12.614 12.5104 12.8889 12.5026 13.2045C12.4947 13.5943 12.4789 14.0221 12.4552 14.4779C12.0049 14.5463 11.5799 14.6058 11.1935 14.6517C10.8812 14.6888 10.6067 14.7117 10.3339 14.7344C10.6517 14.2836 10.9687 13.8529 11.2865 13.4143C11.6919 13.0563 12.0909 12.6998 12.5081 12.3401H12.5026ZM23.6228 12.5816C23.0542 12.9325 22.5826 13.2364 21.9778 13.605C21.3713 13.9746 20.8824 14.2556 20.3091 14.6009C20.7814 14.0636 21.212 13.5657 21.645 13.0647C22.2893 12.9091 22.9288 12.7557 23.6228 12.5816ZM8.99244 12.713C8.69277 13.3235 8.38442 13.9947 8.06976 14.7174C8.02244 14.7078 7.95304 14.703 7.91125 14.692C7.63287 14.6206 7.50984 14.5207 7.47278 14.4547C7.43335 14.3887 7.42546 14.3056 7.52009 14.1284C7.68965 13.7997 8.21565 13.2873 8.99165 12.713H8.99244ZM47.439 13.1452C48.1259 13.3528 48.7599 13.5391 49.3971 13.7258C49.8072 14.2478 50.2141 14.7673 50.6613 15.3276C50.1037 14.9548 49.6282 14.65 49.0391 14.2513C48.4516 13.8527 47.9918 13.5241 47.439 13.1452ZM20.8295 13.2554C20.2381 13.9363 19.5473 14.7089 18.8848 15.4548C18.026 15.9654 17.1372 16.4994 16.3565 16.9527C16.8171 15.9288 17.2934 14.877 17.6727 13.9885C18.6167 13.7836 19.7381 13.5145 20.8295 13.2554ZM58.5647 13.4376C58.9654 13.8168 59.3455 14.1901 59.7335 14.567C60.03 15.0205 60.3265 15.4657 60.623 15.9315C60.351 15.8959 60.0789 15.8606 59.7674 15.8086C59.3833 15.7443 58.9622 15.6654 58.5143 15.5755C58.5143 15.119 58.5143 14.6919 58.5222 14.3021C58.53 13.9865 58.5458 13.7111 58.5695 13.4376H58.5647ZM50.2023 13.9546C51.2795 14.2654 52.3875 14.5885 53.3205 14.8382C53.6572 15.744 54.0862 16.8168 54.4979 17.8618C53.7392 17.3718 52.8765 16.796 52.0445 16.2451C51.4167 15.4678 50.7614 14.6636 50.2023 13.9546ZM62.0544 13.9778C62.8012 14.5884 63.302 15.1247 63.4557 15.461C63.5377 15.6424 63.5267 15.7253 63.4873 15.7894C63.44 15.8536 63.3169 15.9475 63.0362 16.0056C62.9889 16.0144 62.9266 16.0154 62.8777 16.0226C62.5977 15.2859 62.3217 14.6018 62.052 13.9779L62.0544 13.9778ZM17.082 14.1134C16.6633 15.0878 16.1412 16.2312 15.6255 17.3659C14.5459 17.9872 13.4576 18.6161 12.5286 19.1266C12.7131 17.5037 12.8432 16.0941 12.9182 14.9037C14.0948 14.7164 15.4851 14.4524 17.082 14.1134ZM12.4158 14.9822C12.3362 16.2232 12.1982 17.6946 11.9971 19.4126C10.4774 20.2383 9.16357 20.915 8.04216 21.451C7.94595 21.0455 7.85052 20.6543 7.75589 20.3047C7.63208 19.8418 7.51063 19.4388 7.38997 19.0694C7.80794 18.4301 8.22748 17.7893 8.65807 17.1519C9.08865 16.515 9.52712 15.887 9.9648 15.2619C10.352 15.2362 10.7723 15.1996 11.2479 15.1432C11.6067 15.1006 12.0049 15.0435 12.4158 14.9822ZM53.9048 14.9906C55.4844 15.4055 56.8598 15.7368 58.0277 15.9801C58.0435 17.1727 58.1081 18.5858 58.2162 20.2157C57.3108 19.661 56.2525 18.9813 55.2029 18.3087C54.7423 17.1513 54.2778 15.9835 53.9048 14.9906ZM8.37259 15.2682C8.41202 15.2714 8.45382 15.2714 8.49088 15.2745C8.42779 15.3335 8.35839 15.3938 8.29609 15.4525C8.31975 15.3932 8.34341 15.3268 8.37495 15.2682L8.37259 15.2682ZM9.3418 15.2893C8.97588 15.8156 8.60917 16.3402 8.24799 16.8742C7.88601 17.4081 7.53666 17.9445 7.18493 18.4802C7.16916 18.4384 7.15339 18.3853 7.13762 18.3447C7.36947 17.7396 7.59817 17.1557 7.82844 16.5902C8.2677 16.1662 8.72431 15.7363 9.19984 15.2957C9.24716 15.2933 9.29684 15.2901 9.3418 15.2893V15.2893ZM58.5245 16.0817C58.933 16.1627 59.3273 16.2382 59.6854 16.2978C60.1601 16.3772 60.5765 16.4339 60.9637 16.478C61.3706 17.1228 61.7776 17.771 62.1766 18.4272C62.5764 19.0834 62.9628 19.7425 63.3501 20.3999C63.2113 20.7636 63.0733 21.1611 62.9258 21.6183C62.8162 21.963 62.7026 22.3494 62.5875 22.7497C61.4929 22.1611 60.2122 21.4238 58.7343 20.527C58.6152 18.8019 58.5458 17.325 58.5245 16.0817ZM61.5812 16.5352C61.6285 16.5352 61.6821 16.5454 61.7255 16.5478C62.179 17.0096 62.6143 17.4603 63.0322 17.9039C63.2349 18.48 63.4352 19.0744 63.6379 19.6901C63.6221 19.7295 63.5985 19.7807 63.5827 19.8214C63.257 19.2701 62.9337 18.7186 62.5985 18.1687C62.2633 17.6186 61.9211 17.0778 61.5804 16.5351L61.5812 16.5352ZM62.4305 16.558C62.47 16.558 62.5133 16.558 62.5496 16.558C62.5733 16.618 62.5969 16.6859 62.6206 16.7466C62.5575 16.6851 62.4944 16.6203 62.4337 16.558H62.4305ZM17.7792 16.6936C17.3312 17.1923 16.9614 17.6189 16.4835 18.1451C16.0048 18.6719 15.6144 19.0811 15.1594 19.5753C15.4638 18.9245 15.7375 18.3237 16.0135 17.7192C16.5884 17.3876 17.1601 17.0574 17.7792 16.6936ZM5.71496 17.0518C5.79382 17.062 5.92946 17.1402 6.09822 17.3716C6.12188 17.4079 6.15343 17.469 6.18103 17.5116C5.62821 18.072 5.11955 18.6062 4.66531 19.1112C4.90978 18.1775 5.18816 17.4985 5.42948 17.2191C5.56039 17.0684 5.64083 17.0414 5.71496 17.0518ZM6.94835 17.448C6.91681 17.5283 6.88526 17.6148 6.85214 17.6958C6.83637 17.6619 6.82059 17.6201 6.80482 17.5878C6.85214 17.542 6.9034 17.4937 6.94914 17.448H6.94835ZM53.0902 17.537C53.6903 17.9295 54.2463 18.2845 54.8046 18.643C55.0507 19.2601 55.2952 19.8747 55.5664 20.5394C55.1366 20.024 54.7668 19.5968 54.3133 19.0477C53.8614 18.4998 53.5129 18.0559 53.0902 17.537ZM6.42865 17.9671C6.48386 18.0855 6.54379 18.2138 6.60294 18.357C6.30563 19.1365 6.01148 19.9344 5.71732 20.7597C5.25046 21.5011 4.80411 22.2246 4.3751 22.9401C4.22763 22.9826 4.09199 23.0173 3.96423 23.046C4.10539 21.9475 4.26627 20.9898 4.44056 20.141C4.99968 19.4787 5.65266 18.7579 6.42865 17.9671ZM15.2848 18.1324C14.9078 18.9535 14.4607 19.89 14.0333 20.7936C13.3543 21.5255 12.6524 22.2892 12.031 22.9442C12.1848 21.8313 12.3464 20.6878 12.4608 19.7278C13.3085 19.2649 14.3093 18.689 15.2848 18.1324ZM65.1197 18.4671C65.1986 18.4592 65.2735 18.49 65.3965 18.6472C65.6252 18.9377 65.8705 19.6277 66.07 20.5711C65.641 20.0461 65.1591 19.4884 64.6347 18.9036C64.6584 18.8626 64.6978 18.8025 64.7238 18.768C64.9044 18.5448 65.044 18.4738 65.1197 18.4671ZM63.8682 18.804C63.9155 18.8521 63.9628 18.9027 64.0054 18.9502C63.9896 18.9818 63.966 19.0236 63.9502 19.0562C63.9265 18.9738 63.895 18.8857 63.8674 18.804H63.8682ZM55.5097 19.0901C56.4576 19.6928 57.4307 20.314 58.2556 20.8169C58.3266 21.7811 58.4323 22.9315 58.5332 24.0503C57.9425 23.3657 57.2761 22.5705 56.6319 21.8064C56.2486 20.8842 55.8472 19.9277 55.5097 19.0901ZM64.3619 19.3465C65.1 20.1737 65.7191 20.923 66.2458 21.6115C66.3799 22.4678 66.4958 23.4334 66.585 24.5376C66.458 24.5029 66.3231 24.4619 66.1757 24.4126C65.7821 23.678 65.3721 22.9333 64.9415 22.1709C64.6875 21.3328 64.4305 20.5225 64.1718 19.73C64.2349 19.589 64.2996 19.4626 64.3619 19.3465ZM7.03667 19.6028C7.11711 19.8646 7.19598 20.1286 7.27799 20.4335C7.37893 20.8099 7.48303 21.2243 7.58713 21.6687C7.17389 21.8614 6.78195 22.0368 6.42471 22.1899C6.13529 22.3136 5.87899 22.4135 5.62427 22.512C5.80328 21.9885 5.98624 21.4853 6.16841 20.9737C6.45625 20.5169 6.73779 20.0647 7.03667 19.6028ZM11.9285 20.0139C11.8015 21.067 11.624 22.3121 11.449 23.546C10.5878 24.4465 9.71954 25.3558 8.97115 26.1076C8.69277 24.4981 8.4199 23.1095 8.15651 21.9463C9.23376 21.4345 10.4924 20.7895 11.9285 20.0139ZM3.77181 20.9525C3.65588 21.622 3.55021 22.3518 3.45242 23.1328C3.4051 23.1407 3.33571 23.1525 3.29076 23.1541C3.00449 23.1636 2.85938 23.1028 2.80418 23.0503C2.74898 22.9975 2.7198 22.9198 2.75686 22.724C2.82784 22.361 3.18824 21.7221 3.77102 20.9526L3.77181 20.9525ZM63.6797 20.9525C63.9573 21.4289 64.216 21.8951 64.4825 22.3659C64.6394 22.8844 64.7987 23.3949 64.9525 23.9253C64.7025 23.8147 64.451 23.7026 64.1671 23.5651C63.8161 23.3949 63.4336 23.2011 63.0307 22.9888C63.1553 22.55 63.2799 22.1414 63.3982 21.7704C63.4944 21.4701 63.5874 21.21 63.6797 20.9525ZM58.7745 21.1305C60.1719 21.9731 61.399 22.6766 62.4502 23.2387C62.1316 24.3885 61.7933 25.7626 61.4377 27.3578C60.7263 26.5714 59.903 25.6218 59.086 24.6817C58.9693 23.4405 58.8526 22.1888 58.7745 21.1305ZM7.69675 22.1624C7.96961 23.3761 8.25114 24.8278 8.54214 26.5336C7.31742 27.7535 6.24727 28.7715 5.32144 29.6016C5.11482 29.2391 4.91372 28.8919 4.72446 28.5825C4.47368 28.1722 4.2434 27.8189 4.02338 27.4976C4.24419 26.7675 4.46737 26.0346 4.70159 25.3026C4.93502 24.5698 5.1787 23.8457 5.42317 23.1222C5.7883 22.9883 6.17787 22.834 6.61871 22.6455C6.9515 22.5033 7.319 22.3374 7.69675 22.1624ZM13.3227 22.2937C13.0333 22.8985 12.7991 23.4128 12.4884 24.0524C12.1777 24.6929 11.919 25.196 11.6225 25.7983C11.7297 25.0878 11.8228 24.4331 11.9166 23.7749C12.3748 23.2945 12.8306 22.8171 13.3227 22.2937ZM66.8767 22.4569C67.4217 23.2521 67.7513 23.9073 67.8042 24.2727C67.8278 24.4701 67.8042 24.5469 67.7411 24.5969C67.6859 24.6466 67.5344 24.7009 67.249 24.6774C67.2016 24.6774 67.1401 24.6569 67.0912 24.6498C67.0282 23.8651 66.9588 23.131 66.8744 22.4568L66.8767 22.4569ZM4.83171 23.3235C4.62903 23.9318 4.42557 24.5379 4.22921 25.1521C4.03284 25.7663 3.84909 26.3799 3.6614 26.9933C3.63775 26.957 3.6062 26.9115 3.57702 26.8768C3.62434 26.2304 3.68506 25.6052 3.74658 24.9974C4.04861 24.4673 4.36485 23.9262 4.69686 23.3702C4.74417 23.3576 4.78912 23.337 4.83171 23.3236V23.3235ZM57.2714 23.3409C57.7367 23.8871 58.1696 24.386 58.605 24.8877C58.6681 25.5486 58.7304 26.2059 58.8037 26.9197C58.5371 26.3048 58.3021 25.7913 58.023 25.1377C57.743 24.4837 57.5317 23.959 57.2714 23.3409ZM62.8982 23.4787C63.268 23.6715 63.6253 23.8547 63.951 24.0126C64.3839 24.2223 64.7672 24.393 65.126 24.5444C65.335 25.2787 65.544 26.0154 65.7419 26.7586C65.9407 27.5008 66.1283 28.2416 66.3137 28.9812C66.0787 29.2921 65.8326 29.6336 65.5621 30.0322C65.3594 30.3321 65.1402 30.6697 64.9162 31.0217C64.0322 30.1485 63.0117 29.0799 61.8462 27.8031C62.2184 26.1141 62.5685 24.6776 62.8982 23.4787ZM4.01076 23.5504C3.96344 23.6238 3.92007 23.7002 3.87748 23.7729C3.87748 23.7098 3.88537 23.6403 3.90114 23.5779C3.93269 23.57 3.98 23.5582 4.01392 23.5504L4.01076 23.5504ZM11.3362 24.3767C11.2061 25.271 11.0405 26.2964 10.8859 27.2838C10.4395 28.1779 9.97821 29.1072 9.56576 29.9112C9.40094 28.8006 9.23612 27.6581 9.07524 26.7053C9.75897 26.0216 10.5563 25.1865 11.3362 24.3767ZM65.7041 24.7751C65.7514 24.7909 65.7963 24.8137 65.8373 24.8279C66.1425 25.3983 66.4335 25.9524 66.7096 26.4955C66.7411 27.1065 66.7648 27.734 66.7884 28.3833C66.7648 28.4164 66.7253 28.459 66.7001 28.4935C66.5424 27.8723 66.3878 27.2513 66.2214 26.629C66.055 26.0063 65.8784 25.392 65.7049 24.7749L65.7041 24.7751ZM66.5108 25.0378C66.5503 25.0473 66.5897 25.0631 66.6252 25.0718C66.6252 25.1357 66.6252 25.2067 66.6331 25.2709C66.5857 25.1952 66.5479 25.1144 66.5085 25.0378H66.5108ZM59.1601 25.5167C59.8991 26.3619 60.6569 27.2343 61.3068 27.9492C61.1009 28.8935 60.8785 30.0277 60.6609 31.1296C60.2879 30.3066 59.8738 29.3553 59.4709 28.4406C59.3628 27.4474 59.2469 26.4158 59.1601 25.5167ZM1.84917 26.0379C1.92803 26.0269 2.07866 26.0632 2.30656 26.2371C2.33811 26.2639 2.387 26.3144 2.42486 26.3473C2.05342 27.0392 1.7151 27.6937 1.42174 28.3051C1.3902 27.3426 1.46906 26.613 1.62284 26.2774C1.70564 26.096 1.77425 26.0493 1.84917 26.0379ZM3.1425 26.0742C3.1425 26.1582 3.12672 26.2482 3.11884 26.3327C3.09518 26.3059 3.07152 26.2712 3.03998 26.2459C3.06363 26.1906 3.10307 26.13 3.13698 26.0742H3.1425ZM2.79393 26.7162C2.88146 26.8139 2.97058 26.9218 3.06679 27.0425C3.0037 27.8741 2.94455 28.7232 2.89487 29.5979C2.65671 30.4397 2.43432 31.26 2.22376 32.0663C2.09364 32.149 1.97219 32.2207 1.85784 32.2845C1.68356 31.1885 1.56921 30.2233 1.49824 29.3585C1.84759 28.5656 2.27187 27.6933 2.79393 26.7162ZM8.64545 27.1294C8.81894 28.1758 8.99954 29.4199 9.17855 30.6531C8.60602 31.7594 8.02954 32.876 7.52325 33.808C6.80246 32.3427 6.14948 31.0865 5.56985 30.045C6.45783 29.2505 7.4854 28.2783 8.64545 27.1294ZM67.26 27.5977C67.2837 27.656 67.3231 27.72 67.3491 27.7777C67.3255 27.8022 67.2939 27.8369 67.2687 27.8626C67.2687 27.7759 67.2687 27.6837 67.2608 27.5977H67.26ZM68.5533 27.6277C68.6322 27.6426 68.6961 27.6923 68.7694 27.8777C68.9074 28.221 68.9484 28.9552 68.8735 29.9182C68.6093 29.2921 68.3049 28.6201 67.965 27.9094C68.0045 27.8786 68.0518 27.8305 68.0881 27.8056C68.3239 27.6424 68.4792 27.6128 68.5533 27.6277ZM3.83332 28.115C3.98316 28.3434 4.13615 28.5726 4.30097 28.8417C4.50443 29.1746 4.71973 29.5442 4.94527 29.9414C4.60222 30.2425 4.27731 30.5202 3.97685 30.7678C3.73317 30.9686 3.51472 31.1371 3.29706 31.3038C3.32072 30.7525 3.36015 30.2195 3.38854 29.6787C3.53601 29.1582 3.6756 28.6434 3.83332 28.115ZM67.5802 28.2591C68.0541 29.2597 68.4366 30.152 68.7489 30.9606C68.6354 31.8206 68.4768 32.7797 68.2513 33.8655C68.1393 33.7961 68.0202 33.7194 67.8933 33.6304C67.7213 32.8141 67.5392 31.9832 67.3404 31.1301C67.3326 30.2547 67.3168 29.4058 67.2931 28.5727C67.3956 28.4563 67.4911 28.3527 67.5833 28.2591H67.5802ZM61.7153 28.3947C62.8185 29.5965 63.798 30.6167 64.6473 31.4522C64.018 32.465 63.3075 33.6881 62.5173 35.1177C62.0567 34.163 61.5331 33.0205 61.015 31.8886C61.2523 30.6651 61.4921 29.432 61.7153 28.3947ZM10.6233 28.9265C10.5153 29.5873 10.4364 30.146 10.3181 30.8461C10.1998 31.5464 10.0941 32.0997 9.979 32.7595C9.88278 32.0492 9.78815 31.3967 9.69352 30.7402C9.99713 30.1513 10.3 29.5656 10.6233 28.9265ZM66.4722 29.6045C66.6047 30.1417 66.7222 30.6649 66.8452 31.1937C66.8452 31.7344 66.861 32.2677 66.861 32.8188C66.6512 32.6418 66.4406 32.4634 66.2064 32.2509C65.9178 31.989 65.6063 31.6955 65.279 31.3779C65.5227 30.9926 65.7577 30.6323 65.9754 30.3101C66.1528 30.0485 66.3137 29.8259 66.4753 29.6045H66.4722ZM59.653 30.0897C59.9464 30.7453 60.2216 31.3459 60.4984 31.9501C60.3715 32.6021 60.2445 33.2508 60.1144 33.9566C60.0316 33.2913 59.9511 32.7324 59.8667 32.0264C59.7824 31.3197 59.7295 30.7564 59.653 30.0897ZM1.08264 30.3291C1.1615 31.0043 1.26244 31.7342 1.38783 32.5115C1.34051 32.5297 1.28373 32.5636 1.24115 32.577C0.969863 32.6672 0.811352 32.6504 0.74432 32.6149C0.673344 32.5794 0.627605 32.5125 0.608678 32.314C0.569247 31.9462 0.741165 31.2306 1.08264 30.3286V30.3291ZM5.18816 30.3844C5.79145 31.4721 6.47124 32.7856 7.23146 34.3402C6.39947 35.8558 5.65818 37.133 5.00363 38.1902C4.70395 37.9009 4.41217 37.6241 4.14404 37.3808C3.78837 37.0575 3.46741 36.7859 3.16615 36.5396C3.16615 35.7768 3.17404 35.0113 3.1977 34.2428C3.21347 33.4744 3.24502 32.7102 3.27656 31.9481C3.58885 31.7164 3.92165 31.4571 4.2923 31.1514C4.57147 30.9214 4.87508 30.6585 5.18816 30.3844ZM9.30394 31.482C9.43091 32.3762 9.56024 33.4049 9.68878 34.3954C9.51292 35.3797 9.33312 36.4015 9.16436 37.2897C8.69277 36.2702 8.2125 35.2201 7.79059 34.3509C8.25351 33.503 8.78503 32.4772 9.30394 31.482ZM65.0117 31.8082C65.3129 32.0979 65.6031 32.374 65.8713 32.6177C66.2269 32.9408 66.5479 33.2145 66.8491 33.4609C66.8491 34.2238 66.8413 34.9893 66.8176 35.7577C66.8018 36.5261 66.7703 37.2903 66.7387 38.0525C66.4264 38.2841 66.0936 38.5435 65.723 38.8492C65.443 39.0797 65.1386 39.3434 64.8248 39.6183C64.2215 38.5302 63.5441 37.2157 62.7838 35.6603C63.6158 34.1437 64.3571 32.8659 65.0117 31.8082ZM69.1172 31.946C69.4169 32.8655 69.5486 33.5882 69.4965 33.9546C69.4729 34.152 69.4145 34.2171 69.3459 34.2491C69.2749 34.2806 69.118 34.2909 68.8506 34.1876C68.8033 34.1718 68.7529 34.1363 68.7087 34.1158C68.8711 33.3436 69.0076 32.618 69.1172 31.9461V31.946ZM2.7679 32.3062C2.74425 32.947 2.72059 33.5855 2.70482 34.2301C2.68904 34.8743 2.68904 35.5151 2.68116 36.1561C2.64173 36.1293 2.6023 36.093 2.56681 36.0671C2.43511 35.4333 2.31287 34.819 2.20089 34.2195C2.34126 33.6252 2.49426 33.0164 2.65592 32.3888C2.69535 32.3652 2.73557 32.3312 2.77264 32.3062H2.7679ZM60.8486 32.7087C61.321 33.7285 61.8028 34.7781 62.2255 35.6476C61.7626 36.4955 61.231 37.521 60.7113 38.5165C60.5852 37.6223 60.4551 36.5934 60.3265 35.6031C60.5024 34.6191 60.6798 33.5966 60.8486 32.7087ZM2.04396 32.7514C2.0203 32.8353 1.99664 32.9244 1.98087 33.0077C1.97298 32.9438 1.95721 32.8739 1.94144 32.8107C1.97298 32.7941 2.01241 32.7689 2.04238 32.7515L2.04396 32.7514ZM67.3389 33.8447C67.3783 33.8715 67.4177 33.9062 67.4509 33.9315C67.5833 34.5664 67.7064 35.1808 67.8191 35.7813C67.6788 36.3756 67.5258 36.9844 67.3641 37.6119C67.3247 37.6356 67.2852 37.6695 67.2482 37.6946C67.2718 37.0538 67.2955 36.4152 67.3113 35.7706C67.327 35.1263 67.327 34.4857 67.3349 33.8447H67.3389ZM68.0392 34.3235C68.0707 34.3432 68.1101 34.3708 68.1409 34.389C68.133 34.4521 68.1093 34.5222 68.0936 34.586C68.0778 34.5006 68.0541 34.4094 68.0384 34.3233L68.0392 34.3235ZM7.49565 34.8808C7.95699 35.8361 8.48142 36.9793 9.00111 38.112C8.76295 39.335 8.52321 40.5691 8.30004 41.606C7.19676 40.4039 6.21809 39.3841 5.36797 38.5485C5.99728 37.5354 6.70546 36.311 7.49565 34.8808ZM1.91936 35.4189C1.93513 35.5031 1.95879 35.5927 1.97456 35.6774C1.94301 35.6585 1.90358 35.6317 1.87519 35.6135C1.88308 35.5512 1.90674 35.4816 1.92251 35.4186L1.91936 35.4189ZM0.843685 35.7326C0.925701 35.7405 1.03216 35.7617 1.16544 35.813C1.21276 35.8288 1.26244 35.8643 1.30739 35.8848C1.14572 36.6543 1.00772 37.3782 0.898888 38.0481C0.600792 37.1315 0.466727 36.4114 0.519565 36.0459C0.543223 35.8485 0.600792 35.7833 0.67019 35.7513C0.701735 35.7356 0.761669 35.7253 0.843685 35.7324V35.7326ZM9.90092 36.044C9.98452 36.7093 10.0642 37.2683 10.1485 37.9743C10.2337 38.681 10.2866 39.2442 10.3623 39.9109C10.0697 39.2553 9.79367 38.6548 9.51766 38.0506C9.64384 37.3986 9.7708 36.7499 9.90092 36.044ZM1.76479 36.1351C1.87598 36.2045 1.99427 36.2816 2.12045 36.3703C2.29237 37.1867 2.47691 38.0173 2.67485 38.8706C2.67485 39.7459 2.69851 40.5949 2.72216 41.4281C2.62043 41.5443 2.52501 41.6479 2.43274 41.7416C1.958 40.7402 1.57631 39.8469 1.26402 39.038C1.37679 38.1784 1.53609 37.2201 1.76163 36.1351H1.76479ZM62.492 36.1927C63.2128 37.6579 63.8634 38.9143 64.4446 39.9558C63.5559 40.7501 62.5299 41.7228 61.3699 42.8714C61.1971 41.8248 61.0158 40.5808 60.8367 39.3477C61.4093 38.2414 61.9865 37.1247 62.492 36.1927ZM68.0368 36.9915C68.0447 37.0562 68.0605 37.1268 68.0762 37.1907C68.0447 37.2073 68.0052 37.2325 67.9745 37.2499C67.9982 37.1652 68.0218 37.0754 68.0376 36.9914L68.0368 36.9915ZM3.15748 37.1822C3.36725 37.3593 3.57781 37.5376 3.81203 37.7501C4.09987 38.0117 4.41059 38.306 4.73707 38.6231C4.49339 39.0084 4.26154 39.3688 4.04309 39.691C3.86566 39.9518 3.70399 40.1736 3.54311 40.3944C3.41141 39.8594 3.29391 39.3383 3.17089 38.8116C3.17089 38.2694 3.163 37.7348 3.163 37.1822H3.15748ZM60.0363 37.2414C60.1325 37.9508 60.2279 38.6028 60.3226 39.2585C60.0174 39.848 59.7161 40.4345 59.3928 41.0743C59.5 40.4135 59.5797 39.8548 59.698 39.1547C59.8155 38.4547 59.922 37.9009 60.0363 37.2414ZM69.0998 37.3579C69.1819 37.3579 69.2379 37.3682 69.2718 37.3856C69.3427 37.4211 69.3885 37.4879 69.4074 37.6864C69.4389 38.0542 69.2749 38.768 68.9327 39.6697C68.8538 38.9951 68.7529 38.2658 68.6275 37.4893C68.6748 37.4711 68.7323 37.4372 68.7734 37.4238C68.9098 37.3788 69.0178 37.3607 69.0998 37.3583V37.3579ZM68.1598 37.716C68.3341 38.8105 68.4461 39.7761 68.5178 40.64C68.1677 41.4331 67.7442 42.307 67.2222 43.2843C67.1346 43.1867 67.0447 43.0787 66.9493 42.958C67.0124 42.1265 67.0707 41.2773 67.1204 40.4027C67.3586 39.5609 67.5818 38.7406 67.7915 37.9342C67.9232 37.8512 68.0447 37.78 68.1598 37.716ZM66.7182 38.6971C66.6946 39.2484 66.6551 39.7814 66.6267 40.3222C66.4785 40.8435 66.3373 41.3587 66.1804 41.888C66.0298 41.6594 65.8791 41.4286 65.7151 41.1591C65.5117 40.8263 65.294 40.4568 65.0692 40.0595C65.4115 39.7579 65.738 39.4789 66.0384 39.231C66.2821 39.0302 66.5006 38.8637 66.7182 38.6971ZM9.35441 38.8707C9.72822 39.6938 10.1415 40.645 10.5444 41.5596C10.6517 42.5529 10.7684 43.5845 10.8559 44.4836C10.1162 43.6386 9.35915 42.7661 8.70933 42.0512C8.91437 41.1069 9.13675 39.9726 9.35441 38.8707ZM5.09905 38.9788C5.98387 39.8521 7.00355 40.9207 8.16912 42.1974C7.79769 43.8865 7.44597 45.323 7.11711 46.522C6.74804 46.3291 6.3908 46.1459 6.06431 45.988C5.63136 45.7783 5.2481 45.6075 4.88928 45.4562C4.68108 44.7219 4.4721 43.9852 4.27337 43.242C4.07464 42.499 3.88695 41.7575 3.70162 41.0172C3.93663 40.7069 4.18426 40.3659 4.45317 39.9683C4.65664 39.6684 4.87508 39.3309 5.09905 38.9788ZM1.14257 40.087C1.40597 40.7118 1.71274 41.3825 2.05027 42.0915C2.01083 42.1222 1.96431 42.1703 1.92724 42.1953C1.69223 42.3585 1.53372 42.3881 1.45959 42.3732C1.38862 42.3582 1.32001 42.3062 1.24588 42.1211C1.10945 41.7783 1.06844 41.0478 1.14257 40.087ZM60.4495 40.087C60.6144 41.1975 60.78 42.3401 60.94 43.2928C60.2563 43.9766 59.4582 44.8116 58.6791 45.6214C58.8092 44.7271 58.9756 43.7018 59.1294 42.7144C59.5757 41.8202 60.0371 40.8911 60.4495 40.087ZM64.6946 40.3963C64.9005 40.7586 65.1024 41.1063 65.2916 41.4155C65.5416 41.8257 65.7719 42.177 65.9919 42.4982C65.7711 43.2289 65.5487 43.9607 65.3145 44.6934C65.0803 45.4263 64.8358 46.1522 64.5929 46.8758C64.227 47.0097 63.8374 47.162 63.3958 47.3504C63.0638 47.4927 62.6963 47.6605 62.3186 47.8356C62.0457 46.6219 61.7649 45.1702 61.4732 43.4645C62.6987 42.2446 63.7688 41.2266 64.6946 40.3963ZM3.31599 41.5024C3.4745 42.1243 3.62828 42.7461 3.79468 43.3691C3.96108 43.9917 4.13773 44.6061 4.31122 45.2231C4.26391 45.2073 4.21974 45.1852 4.17874 45.1702C3.87354 44.5999 3.58254 44.0458 3.30574 43.5027C3.27419 42.8916 3.25054 42.2641 3.22688 41.6148C3.25054 41.5816 3.28997 41.5374 3.3152 41.5025L3.31599 41.5024ZM68.5943 41.6868C68.618 42.6525 68.547 43.3822 68.3925 43.7187C68.3104 43.9001 68.2418 43.949 68.1661 43.9603C68.0952 43.9713 67.9374 43.9358 67.7095 43.7611C67.6701 43.7342 67.6283 43.6838 67.5904 43.651C67.9642 42.9566 68.3002 42.3 68.5943 41.6868ZM2.7474 42.1359C2.7474 42.2226 2.7474 42.3148 2.7474 42.4008C2.71586 42.3425 2.68431 42.2785 2.6575 42.2206C2.68116 42.1962 2.7127 42.1615 2.73794 42.1359H2.7474ZM8.57763 42.6402C9.28896 43.4266 10.1131 44.3762 10.9301 45.3163C11.046 46.5575 11.1659 47.8092 11.2431 48.8675C9.84493 48.0244 8.61706 47.3217 7.56583 46.7592C7.88444 45.6095 8.22196 44.2355 8.57763 42.6402ZM66.3539 43.0046C66.3775 43.0409 66.4091 43.0865 66.4391 43.1212C66.3917 43.7661 66.3302 44.3898 66.2695 44.9964C65.9667 45.5279 65.6497 46.0701 65.3161 46.6279C65.2688 46.6405 65.2254 46.661 65.1836 46.6744C65.387 46.0662 65.5905 45.46 65.7869 44.8458C65.9832 44.2316 66.167 43.6181 66.3539 43.0046V43.0046ZM11.2124 43.0788C11.4789 43.6936 11.7132 44.2071 11.9931 44.8608C12.2731 45.5146 12.4821 46.0396 12.7423 46.6576C12.277 46.1117 11.8456 45.612 11.4103 45.1107C11.3472 44.45 11.2849 43.7924 11.2124 43.0788ZM66.8941 43.6636C66.9177 43.6904 66.9414 43.7267 66.973 43.7525C66.9493 43.8078 66.9099 43.8683 66.876 43.9242C66.8838 43.8395 66.8917 43.7489 66.8996 43.6636H66.8941ZM61.0441 43.8903C61.3225 45.4999 61.5954 46.8885 61.8596 48.0518C60.7823 48.5635 59.5229 49.2084 58.0868 49.9841C58.2146 48.9309 58.392 47.686 58.5663 46.452C59.4283 45.5516 60.2958 44.6422 61.0441 43.8903ZM58.3928 44.1997C58.2856 44.9102 58.1933 45.565 58.0987 46.2232C57.6405 46.7035 57.1847 47.1808 56.6926 47.7042C56.982 47.0995 57.217 46.5851 57.5277 45.9456C57.8384 45.3049 58.0971 44.802 58.3928 44.1997ZM3.37987 44.7272C3.4193 44.8029 3.46267 44.8841 3.5021 44.9603C3.46267 44.9509 3.42324 44.9351 3.39091 44.9264C3.39091 44.8625 3.39091 44.7915 3.38302 44.7272H3.37987ZM2.76396 45.3205C2.81128 45.3205 2.87358 45.341 2.92247 45.3481C2.98556 46.1337 3.05496 46.8685 3.13855 47.5432C2.59362 46.7468 2.26398 46.0912 2.21114 45.7252C2.18748 45.5279 2.21114 45.4512 2.27423 45.4011C2.32944 45.3514 2.48006 45.2971 2.76554 45.3206L2.76396 45.3205ZM3.43113 45.4604C3.55731 45.4959 3.69295 45.5361 3.83963 45.5854C4.23315 46.3201 4.64323 47.0648 5.0746 47.8272C5.32775 48.6658 5.58326 49.477 5.84271 50.2701C5.77962 50.4095 5.71338 50.5344 5.65187 50.6494C4.9153 49.8242 4.2986 49.0757 3.77181 48.3886C3.63775 47.5318 3.51945 46.5657 3.43113 45.4604ZM11.4829 45.9477C12.072 46.6312 12.7376 47.4245 13.3819 48.1873C13.7651 49.1102 14.1665 50.0676 14.5033 50.9058C13.5569 50.3038 12.5846 49.6835 11.7597 49.1811C11.6887 48.217 11.5838 47.0665 11.4829 45.9477ZM5.06277 46.0727C5.31276 46.1833 5.56433 46.2954 5.84902 46.4329C6.19917 46.603 6.58164 46.7969 6.98541 47.0093C6.86081 47.448 6.73542 47.8566 6.61713 48.2276C6.52092 48.5284 6.42786 48.7876 6.33639 49.0455C6.05879 48.5691 5.79934 48.1029 5.53279 47.6323C5.37664 47.1137 5.21655 46.603 5.06277 46.0727ZM66.1378 46.2253C66.1378 46.2884 66.1299 46.358 66.1142 46.4202C66.0826 46.4281 66.0353 46.4399 66.0014 46.4478C66.0487 46.3745 66.0929 46.298 66.1354 46.2254L66.1378 46.2253ZM66.7245 46.844C67.0108 46.8345 67.1567 46.8952 67.2111 46.9479C67.2663 47.0007 67.2963 47.0783 67.2584 47.2741C67.1875 47.637 66.8271 48.276 66.2451 49.0455C66.3602 48.376 66.4659 47.6462 66.5645 46.8652C66.6118 46.8573 66.6812 46.8454 66.7253 46.8439L66.7245 46.844ZM66.0511 46.952C65.9099 48.0515 65.7467 49.0098 65.5732 49.8591C65.014 50.5209 64.3618 51.2411 63.5874 52.0309C63.5322 51.9125 63.4723 51.7842 63.4131 51.641C63.7105 50.8615 64.0046 50.0635 64.298 49.2383C64.7648 48.4968 65.212 47.7734 65.641 47.058C65.7885 47.0162 65.9241 46.9807 66.0511 46.952ZM57.9851 47.0538C57.8305 48.1667 57.6689 49.3102 57.5545 50.2701C56.7076 50.7328 55.7068 51.3072 54.7329 51.8636C55.109 51.0433 55.5554 50.1069 55.982 49.2044C56.661 48.4725 57.3637 47.7089 57.9851 47.0538ZM7.43019 47.2487C8.52479 47.8372 9.80392 48.575 11.281 49.4713C11.4009 51.1968 11.4679 52.6734 11.4884 53.9167C11.0807 53.8359 10.6872 53.7602 10.3307 53.7006C9.85676 53.6214 9.4388 53.5645 9.05237 53.5205C8.64466 52.8756 8.23852 52.2274 7.8387 51.5711C7.43887 50.9141 7.05087 50.2546 6.66366 49.5963C6.80167 49.2327 6.94283 48.8373 7.08951 48.3801C7.19992 48.0352 7.31506 47.6493 7.43019 47.2487ZM64.3918 47.486C64.2128 48.008 64.0306 48.51 63.8493 49.02C63.5614 49.4779 63.2791 49.9323 62.9794 50.3952C62.899 50.1334 62.8193 49.8694 62.7381 49.5646C62.6364 49.1881 62.5323 48.7737 62.429 48.3293C62.8422 48.1365 63.2333 47.9612 63.5914 47.8081C63.8808 47.6842 64.1363 47.5846 64.3918 47.486ZM61.9731 48.5475C62.0701 48.953 62.1656 49.3441 62.2594 49.6938C62.384 50.1577 62.5047 50.5612 62.6261 50.9313C62.2081 51.5701 61.7886 52.2097 61.3572 52.8467C60.9266 53.4835 60.489 54.1116 60.0513 54.7367C59.6633 54.7628 59.2453 54.799 58.7682 54.8554C58.4078 54.898 58.0096 54.9549 57.5971 55.0165C57.6776 53.7752 57.8156 52.3043 58.0167 50.5858C59.5371 49.7598 60.8517 49.0838 61.9731 48.5475ZM3.94531 49.4269C4.37431 49.9519 4.85616 50.5096 5.38058 51.0944C5.35693 51.1354 5.3175 51.1935 5.29226 51.2279C5.11167 51.451 4.96972 51.5242 4.89322 51.5309C4.81436 51.5388 4.74181 51.508 4.61878 51.3508C4.39008 51.0603 4.14561 50.3703 3.94531 49.4269ZM14.4512 49.4608C14.8802 49.9753 15.2493 50.402 15.702 50.9503C16.1538 51.4982 16.5024 51.942 16.9259 52.4611C16.3266 52.0688 15.7714 51.7131 15.213 51.355C14.9678 50.7383 14.7225 50.125 14.4512 49.4608ZM11.7999 49.7828C12.7037 50.3372 13.7612 51.0176 14.8108 51.6898C15.2714 52.8472 15.7375 54.015 16.1105 55.0079C14.5309 54.5931 13.1563 54.2618 11.9884 54.0184C11.9726 52.8258 11.9079 51.4129 11.7999 49.7828ZM6.43102 50.1749C6.7575 50.7267 7.08084 51.2792 7.416 51.8297C7.75037 52.3797 8.09263 52.9206 8.4341 53.4633C8.38678 53.4633 8.33552 53.4529 8.29215 53.4506C7.83712 52.9879 7.40259 52.5368 6.98384 52.0925C6.78116 51.5169 6.58086 50.9235 6.37739 50.3084C6.39317 50.269 6.40894 50.2162 6.4326 50.1749L6.43102 50.1749ZM54.8512 50.4269C54.5483 51.0761 54.277 51.6757 54.0018 52.2788C53.4277 52.61 52.8568 52.939 52.2385 53.3023C52.6856 52.8042 53.0547 52.3784 53.5326 51.8529C54.0097 51.3277 54.3985 50.9197 54.8512 50.4269ZM57.4867 50.872C57.3022 52.4948 57.172 53.9045 57.0971 55.0948C55.9205 55.2821 54.5318 55.5443 52.9356 55.883C53.3552 54.9083 53.8741 53.7635 54.3898 52.6284C55.4686 52.0077 56.5585 51.3822 57.4867 50.872ZM65.3484 50.8893C65.1039 51.8218 64.8279 52.5 64.5866 52.7792C64.4557 52.93 64.3753 52.9569 64.3003 52.9467C64.2294 52.9364 64.0866 52.8582 63.9171 52.6268C63.8934 52.5905 63.8619 52.5294 63.8343 52.4869C64.3871 51.9274 64.895 51.3936 65.3484 50.8893ZM6.06274 50.9445C6.09428 51.0254 6.11794 51.1121 6.14239 51.1924C6.09507 51.1458 6.0517 51.0949 6.0099 51.0483C6.02567 51.0176 6.04144 50.9765 6.0651 50.9445H6.06274ZM62.8312 51.5187C62.8469 51.5605 62.8627 51.6138 62.8785 51.6543C62.6474 52.2584 62.4195 52.8418 62.1908 53.4066C61.75 53.8316 61.291 54.2617 60.8147 54.7033C60.7673 54.7033 60.7177 54.7112 60.6743 54.7112C61.0402 54.185 61.4077 53.66 61.7697 53.1263C62.1301 52.5924 62.4794 52.056 62.8319 51.5202L62.8312 51.5187ZM15.5198 52.1373C16.2784 52.6271 17.1396 53.2036 17.9716 53.7541C18.5986 54.5315 19.2539 55.3357 19.8138 56.0446C18.7358 55.7337 17.6278 55.4107 16.6948 55.161C16.3589 54.2555 15.9315 53.182 15.5198 52.1373ZM63.1616 52.3049C63.1695 52.338 63.1931 52.379 63.2089 52.4107C63.1616 52.4557 63.1127 52.5034 63.0669 52.5484C63.0985 52.4695 63.13 52.3844 63.1608 52.3049H63.1616ZM53.6611 53.0443C53.2006 54.0687 52.7219 55.1197 52.3426 56.0086C51.3986 56.2137 50.2756 56.4845 49.1834 56.7438C49.7772 56.0613 50.4688 55.2878 51.1336 54.5401C51.9916 54.0296 52.8812 53.4976 53.6611 53.0443ZM7.39628 53.2498C7.45937 53.3121 7.52325 53.3776 7.58476 53.4405C7.54533 53.4405 7.50038 53.4405 7.4641 53.4405C7.44045 53.3798 7.41679 53.3112 7.39313 53.2498H7.39628ZM7.65495 53.9406C7.78665 53.9406 7.92702 53.9405 8.08238 53.9484C8.66911 54.5435 9.27161 55.1443 9.90092 55.7558C10.3796 56.4865 10.8504 57.191 11.322 57.8768C11.2983 58.0306 11.2747 58.1693 11.251 58.2984C10.3094 57.7129 9.5074 57.166 8.80711 56.6542C8.43804 55.8706 8.05399 54.9783 7.6581 53.9442L7.65495 53.9406ZM7.13604 53.9768C7.416 54.7136 7.69123 55.3976 7.96172 56.0215C7.21411 55.4109 6.71334 54.8746 6.56035 54.5383C6.47755 54.3569 6.48149 54.274 6.52881 54.2098C6.57612 54.1459 6.69994 54.0519 6.98068 53.9937C7.028 53.9851 7.0903 53.9842 7.13919 53.9763L7.13604 53.9768ZM9.39305 54.068C9.66434 54.1035 9.9372 54.139 10.2487 54.1909C10.6328 54.2548 11.0523 54.3342 11.4994 54.4239C11.4994 54.8805 11.4994 55.3075 11.4994 55.6973C11.4994 56.013 11.4758 56.2884 11.4521 56.5619C11.0515 56.1818 10.6714 55.806 10.2818 55.4282C9.98609 54.976 9.69036 54.5324 9.39463 54.068H9.39305ZM11.9947 54.5298C13.2115 54.786 14.6476 55.1308 16.3179 55.5745C16.9188 57.1969 17.3983 58.5953 17.7681 59.7824C17.3541 59.8203 16.9551 59.8582 16.5955 59.9012C16.1184 59.9588 15.7004 60.0228 15.3163 60.0897C14.7446 59.5857 14.1721 59.0789 13.6043 58.5619C13.0357 58.0452 12.4781 57.5221 11.9229 57.0004C11.9466 56.612 11.9702 56.1908 11.986 55.7101C11.9939 55.3482 11.9939 54.9464 11.9939 54.5298H11.9947ZM61.7192 54.5471C61.6955 54.6063 61.6719 54.6729 61.6403 54.7315C61.6009 54.7315 61.5591 54.7315 61.5213 54.7236C61.5843 54.6645 61.6537 54.6045 61.716 54.5457L61.7192 54.5471ZM19.3548 54.6722C19.9116 55.045 20.3871 55.3498 20.9762 55.7486C21.5645 56.1473 22.0235 56.4756 22.5763 56.8546C21.8894 56.6469 21.2554 56.4607 20.6182 56.274C20.2089 55.752 19.8012 55.2326 19.3548 54.6722ZM61.0016 55.2062C61.1569 55.2062 61.2981 55.214 61.4298 55.2211C60.985 56.2352 60.5615 57.1086 60.1546 57.8739C59.4314 58.352 58.6018 58.8592 57.6334 59.3995C57.6176 59.2698 57.594 59.1299 57.5782 58.9757C58.0821 58.3107 58.5892 57.628 59.1042 56.9183C59.7595 56.3394 60.3896 55.7709 61.0016 55.2063V55.2062ZM59.6869 55.2653C59.3683 55.7164 59.0529 56.1465 58.7343 56.5854C58.3282 56.9436 57.9307 57.2996 57.5127 57.6596C57.5127 57.3856 57.5127 57.1108 57.5127 56.7952C57.5206 56.406 57.5443 55.9767 57.5601 55.5217C58.0119 55.4531 58.437 55.3939 58.8242 55.348C59.1373 55.3109 59.4109 55.288 59.683 55.2653H59.6869ZM61.9463 55.2826C61.9936 55.2921 62.0623 55.2969 62.1048 55.3079C62.3824 55.3797 62.5055 55.4793 62.5433 55.5453C62.5827 55.6116 62.5906 55.6944 62.496 55.8715C62.3264 56.2002 61.8004 56.7105 61.0244 57.2848C61.3241 56.6744 61.6325 56.0052 61.9479 55.2825L61.9463 55.2826ZM49.7102 55.3929C49.2362 55.9321 48.8056 56.4326 48.3703 56.9353C47.7252 57.0912 47.0849 57.246 46.3893 57.4205C46.9587 57.0688 47.4319 56.7626 48.0383 56.393C48.6455 56.0221 49.1353 55.7392 49.7102 55.3929ZM57.0656 55.6026C57.0419 56.0193 57.0183 56.4204 57.0183 56.7828C57.0104 57.2641 57.0104 57.6857 57.0183 58.0754C56.4386 58.5702 55.8559 59.0648 55.2636 59.5542C54.6706 60.044 54.0744 60.5227 53.479 60.9993C53.0989 60.9145 52.6856 60.8316 52.2125 60.7514C51.856 60.6907 51.4577 60.6328 51.0461 60.5755C51.4727 59.4073 52.0185 58.0337 52.6951 56.4417C54.3851 56.078 55.8353 55.8006 57.0632 55.6026H57.0656ZM16.903 55.7298C17.9251 56.0064 19.1309 56.3599 20.3264 56.7086C21.0945 57.6901 21.8721 58.6786 22.5093 59.5267C20.8784 59.574 19.4645 59.6451 18.2768 59.7407C17.9243 58.6014 17.4645 57.2633 16.903 55.7298ZM52.1076 56.5667C51.4719 58.0721 50.9515 59.3885 50.5453 60.5098C49.3624 60.3578 47.9555 60.2175 46.3278 60.0924C47.0044 59.2762 47.8262 58.3253 48.6392 57.3825C49.8498 57.0908 51.0721 56.7945 52.1076 56.5667ZM21.1332 56.9396C21.9983 57.196 22.9888 57.5039 23.9414 57.7978C24.7624 58.3664 25.6156 58.9538 26.3514 59.4759C25.23 59.4837 24.0778 59.4845 23.1118 59.5073C22.5337 58.7339 21.8216 57.8251 21.1332 56.9393V56.9396ZM47.8238 57.5752C47.0936 58.4278 46.3381 59.3004 45.7237 60.0458C44.7616 59.9764 43.6095 59.9207 42.4888 59.8615C43.2491 59.3748 44.1299 58.827 44.9769 58.2978C45.9438 58.0497 46.9477 57.7902 47.8238 57.5752ZM9.26136 57.5981C9.82364 57.9822 10.4419 58.3825 11.1114 58.7974C11.0957 58.8439 11.0878 58.9095 11.0641 58.95C10.9537 59.2149 10.8386 59.3247 10.7684 59.3525C10.6974 59.3801 10.6123 59.3731 10.4506 59.2572C10.1501 59.0425 9.71875 58.449 9.26057 57.5981H9.26136ZM11.8614 57.6194C12.3291 58.0567 12.7951 58.4955 13.2715 58.9288C13.7486 59.3628 14.2288 59.7854 14.7091 60.2108C14.6618 60.2202 14.6113 60.2289 14.5695 60.2384C14.0033 59.9225 13.4576 59.6123 12.9308 59.304C12.5743 58.8084 12.2147 58.295 11.8464 57.7615C11.8464 57.7189 11.8543 57.6638 11.8622 57.6194H11.8614ZM25.5305 58.2912C26.1685 58.4913 26.7095 58.6492 27.3845 58.8654C28.0611 59.0817 28.5942 59.2658 29.2314 59.4734C28.5146 59.4655 27.8553 59.4655 27.1921 59.4655C26.6527 59.0804 26.1164 58.6985 25.5305 58.2874V58.2912ZM11.7234 58.4606C11.7707 58.5309 11.8236 58.6053 11.8725 58.6746C11.8173 58.6415 11.755 58.6083 11.7005 58.5749C11.7084 58.541 11.7084 58.4961 11.7242 58.4606H11.7234ZM57.053 58.6958C57.053 58.7392 57.053 58.7933 57.0609 58.8356C56.6673 59.3519 56.2833 59.8486 55.9024 60.3273C55.3622 60.6101 54.8023 60.8926 54.2218 61.1812C54.1745 61.1694 54.1272 61.1606 54.0846 61.1496C54.5846 60.7477 55.0838 60.3483 55.5806 59.9377C56.0782 59.5272 56.564 59.1108 57.053 58.6961V58.6958ZM43.3697 58.7132C42.7633 59.0968 42.2089 59.4552 41.6505 59.8149C40.9873 59.7826 40.328 59.7502 39.612 59.7217C40.2586 59.5444 40.8004 59.3847 41.4873 59.2005C42.1734 59.0165 42.7215 58.8831 43.3697 58.7132ZM59.6491 58.8001C59.1515 59.6272 58.6933 60.1998 58.3826 60.3998C58.2154 60.5076 58.1302 60.5114 58.0616 60.4803C57.9906 60.4495 57.881 60.3348 57.7832 60.065C57.7753 60.024 57.7596 59.9579 57.7359 59.9103C58.4252 59.5283 59.0631 59.1567 59.6412 58.8001H59.6491ZM57.1484 59.5416C57.1484 59.5779 57.1563 59.6232 57.1642 59.6582C57.109 59.689 57.0451 59.7205 56.9883 59.7513C57.0356 59.6835 57.0948 59.6099 57.1476 59.5416H57.1484ZM28.3813 59.9569C29.1155 59.9569 30.0145 59.983 30.8087 59.9932C31.7566 60.3081 32.7424 60.6317 33.5964 60.9255C32.5208 61.2477 31.4128 61.5736 30.4932 61.8684C29.7196 61.289 28.7804 60.6175 27.8695 59.9615C28.0548 59.9615 28.1928 59.9536 28.3813 59.9536V59.9569ZM27.0312 59.9671C28.0454 60.6924 29.069 61.422 29.9191 62.0563C28.3663 62.562 27.0304 63.0301 25.9177 63.4569C25.2584 62.4629 24.4422 61.3082 23.4698 59.9947C24.5297 59.9718 25.786 59.9695 27.0312 59.9671ZM22.8689 60.0113C23.9012 61.3984 24.7561 62.6044 25.4453 63.6388C25.0565 63.7921 24.6835 63.9426 24.3507 64.0858C23.9099 64.2756 23.5298 64.452 23.1796 64.624C22.4896 64.3015 21.7964 63.9768 21.1056 63.6409C20.4139 63.3048 19.7302 62.9619 19.0496 62.6176C18.9692 62.2367 18.8754 61.8254 18.7508 61.3611C18.6577 61.011 18.5441 60.6249 18.4243 60.2254C19.664 60.1283 21.1403 60.0567 22.8689 60.0113ZM32.4703 60.0192C33.1398 60.0311 33.7029 60.0318 34.4118 60.0492C35.1216 60.0665 35.6863 60.0934 36.3558 60.1131C35.6657 60.3099 35.0333 60.4955 34.3969 60.6831C33.7707 60.4656 33.1493 60.2491 32.4703 60.0199V60.0192ZM38.0135 60.1675C39.0111 60.2022 40.0481 60.2322 40.9503 60.2734C40.0086 60.8859 39.0394 61.5131 38.2398 62.0554C37.3352 61.7173 36.2454 61.337 35.1871 60.9642C36.053 60.7117 37.0521 60.4365 38.0135 60.1675ZM17.9211 60.2672C18.0528 60.704 18.1703 61.1153 18.2705 61.4918C18.3517 61.7966 18.414 62.0642 18.4747 62.3309C17.9842 62.0795 17.5126 61.827 17.0332 61.5744C16.6215 61.2235 16.213 60.8799 15.7974 60.5172C16.0687 60.4746 16.3407 60.4343 16.6546 60.3964C17.0418 60.3499 17.4661 60.3071 17.9211 60.2672ZM13.6571 60.3011C13.7281 60.3429 13.8117 60.3861 13.885 60.4282C13.8535 60.4392 13.8061 60.4478 13.7738 60.4597C13.7344 60.4092 13.6949 60.3519 13.6571 60.3009V60.3011ZM41.7878 60.32C43.0314 60.3816 44.2861 60.4437 45.3428 60.5171C44.3105 61.7814 43.4399 62.8956 42.7349 63.8563C41.6434 63.377 40.332 62.8484 38.8052 62.2694C39.6845 61.6764 40.7413 60.996 41.7878 60.32ZM45.9461 60.5616C47.6708 60.6893 49.1408 60.8335 50.3734 60.9896C50.2354 61.3828 50.1037 61.7632 49.9949 62.1083C49.8482 62.5668 49.7331 62.9709 49.6345 63.3479C48.9381 63.6594 48.2386 63.971 47.532 64.2738C46.8262 64.5763 46.1196 64.8661 45.4154 65.1552C45.0739 64.9664 44.7017 64.7727 44.2695 64.5619C43.9438 64.4032 43.5787 64.2333 43.1986 64.0619C43.9367 63.0611 44.8492 61.8984 45.9461 60.5616ZM14.5056 60.7713C15.2335 61.1753 15.9796 61.5799 16.7524 61.9875C17.4196 62.5556 18.0741 63.0984 18.7208 63.6254C18.7444 63.7793 18.7602 63.9201 18.7681 64.0513C17.7011 63.7548 16.7761 63.4594 15.9606 63.1657C15.3857 62.5176 14.7667 61.7669 14.0956 60.8857C14.2202 60.847 14.3558 60.8091 14.5056 60.7713ZM50.8734 61.051C51.3245 61.1125 51.7487 61.1767 52.1328 61.2417C52.4443 61.2945 52.7156 61.3474 52.9837 61.4028C52.5523 61.7446 52.1281 62.0683 51.7006 62.3986C51.2101 62.6282 50.7259 62.8593 50.2228 63.0872C50.2938 62.8236 50.371 62.5594 50.4665 62.2587C50.5848 61.8872 50.7204 61.4812 50.8734 61.051ZM13.6082 61.0683C14.0853 61.6976 14.5427 62.2762 14.978 62.7995C14.0877 62.4239 13.4544 62.0494 13.2123 61.7697C13.0822 61.619 13.0664 61.5375 13.0877 61.4646C13.1114 61.392 13.2076 61.2648 13.4599 61.1299C13.4994 61.1094 13.5625 61.0888 13.6082 61.0683ZM34.3866 61.206C35.5616 61.6158 36.7485 62.0283 37.7422 62.3969C36.3952 63.3197 35.2454 64.1442 34.2975 64.8674C33.3859 64.1 32.2771 63.2215 30.9751 62.2359C31.9869 61.915 33.1919 61.5595 34.3866 61.206ZM55.1303 61.2887C55.083 61.3383 55.0459 61.3944 55.0057 61.4434C54.9742 61.43 54.9269 61.4182 54.8961 61.4055C54.975 61.3669 55.0546 61.3275 55.1303 61.289V61.2887ZM54.2605 61.7189C54.4087 61.7638 54.5412 61.8075 54.665 61.8523C53.9521 62.7005 53.2992 63.419 52.6935 64.039C51.8662 64.2934 50.9278 64.546 49.8482 64.7912C49.864 64.6612 49.8876 64.5215 49.9113 64.3695C50.5808 63.875 51.259 63.3635 51.9506 62.8291C52.744 62.4577 53.5105 62.0888 54.2581 61.7189H54.2605ZM55.1429 62.0578C55.1903 62.0807 55.2518 62.1053 55.2896 62.1281C55.5365 62.2749 55.6279 62.4038 55.6453 62.4777C55.6611 62.5518 55.6453 62.6343 55.5049 62.7786C55.2502 63.046 54.6027 63.3871 53.6974 63.7194C54.1564 63.2186 54.6382 62.6621 55.1429 62.0582V62.0578ZM30.4025 62.4244C31.7818 63.4636 32.9403 64.3791 33.8929 65.1768C33.5649 65.4326 33.2486 65.6834 32.9703 65.9141C32.5996 66.2205 32.285 66.4982 31.9987 66.7617C31.244 66.6471 30.4885 66.5312 29.7314 66.4036C28.9728 66.276 28.2212 66.1374 27.4713 65.999C27.2867 65.6562 27.0801 65.2909 26.8301 64.8802C26.6424 64.5709 26.4263 64.2315 26.1992 63.8822C27.3608 63.4397 28.7559 62.9551 30.4025 62.4244ZM38.3052 62.6108C39.9235 63.2195 41.2949 63.7704 42.4344 64.2677C42.19 64.6064 41.9589 64.9358 41.757 65.2362C41.4873 65.634 41.2618 65.9899 41.0622 66.3231C40.306 66.4257 39.5489 66.5285 38.7855 66.6198C38.0229 66.711 37.2619 66.7912 36.5033 66.8698C36.2296 66.5927 35.9276 66.2996 35.5719 65.9756C35.3046 65.7314 35.0017 65.4677 34.6847 65.1959C35.6752 64.4438 36.8763 63.584 38.3052 62.6108ZM19.1656 63.2317C19.7389 63.5196 20.3098 63.808 20.8895 64.0898C21.4683 64.3714 22.0472 64.6416 22.6276 64.9141C22.5882 64.9361 22.5361 64.9582 22.4983 64.9795C21.8674 64.8364 21.2585 64.692 20.6671 64.5452C20.186 64.1702 19.6963 63.7796 19.1932 63.3714C19.1932 63.3288 19.1774 63.2756 19.1695 63.2315L19.1656 63.2317ZM16.6672 63.9436C17.3147 64.1539 18.0197 64.3639 18.7807 64.573C18.7807 64.6219 18.7807 64.6884 18.7807 64.7319C18.7492 65.0171 18.6687 65.1557 18.6088 65.2023C18.5457 65.2488 18.4676 65.2654 18.2784 65.2023C17.9298 65.0812 17.3486 64.6327 16.6696 63.9457L16.6672 63.9436ZM49.4909 63.9539C49.4831 63.9981 49.4673 64.051 49.4594 64.0937C48.9389 64.4767 48.4311 64.8425 47.9326 65.1935C47.3341 65.3123 46.7174 65.4276 46.0778 65.5409C46.0384 65.518 45.9934 65.4921 45.9556 65.4692C46.5478 65.2246 47.1401 64.9833 47.7323 64.7297C48.3238 64.4759 48.9082 64.2143 49.4933 63.9541L49.4909 63.9539ZM25.7253 64.062C25.9745 64.4439 26.204 64.8032 26.4066 65.1362C26.5707 65.4061 26.7047 65.6473 26.8388 65.8863C26.2962 65.7837 25.7726 65.6735 25.2418 65.5663C24.7482 65.3456 24.2584 65.132 23.7577 64.9011C24.0061 64.784 24.2553 64.6677 24.5455 64.5429C24.9035 64.3893 25.301 64.2282 25.7253 64.062ZM19.272 64.0746C19.343 64.129 19.41 64.1882 19.4771 64.242C19.414 64.2255 19.3446 64.208 19.2823 64.1915C19.2823 64.156 19.2823 64.1116 19.2744 64.075L19.272 64.0746ZM42.8973 64.4708C43.3137 64.6571 43.7017 64.8363 44.0519 65.0069C44.335 65.1453 44.5802 65.2744 44.8216 65.4031C44.3105 65.6101 43.8106 65.8014 43.3058 65.9985C42.7712 66.0803 42.2436 66.1633 41.6971 66.24C41.8422 66.0077 41.9904 65.7751 42.1671 65.5133C42.3847 65.1905 42.63 64.8403 42.8973 64.4708ZM51.9459 64.7865C51.2377 65.4385 50.6384 65.8584 50.2843 65.9625C50.0934 66.0185 50.0122 65.9972 49.9539 65.9475C49.8987 65.8986 49.8237 65.7571 49.8056 65.4707C49.8056 65.4273 49.8056 65.3612 49.8056 65.3118C50.5721 65.1399 51.2874 64.965 51.9412 64.7864L51.9459 64.7865ZM49.3443 64.7944C49.3443 64.8314 49.3364 64.8754 49.3285 64.9109C49.2654 64.9243 49.1968 64.9377 49.1345 64.9511C49.2055 64.9006 49.2764 64.8451 49.3458 64.7944H49.3443ZM21.641 65.2965C21.7254 65.3162 21.8161 65.336 21.9013 65.3557C21.8697 65.3763 21.8303 65.3983 21.8011 65.4196C21.7538 65.3809 21.6931 65.3361 21.641 65.2967V65.2965ZM34.2809 65.5042C34.6271 65.8006 34.9521 66.0827 35.2391 66.3453C35.4725 66.5581 35.6705 66.7493 35.8661 66.9408C35.3156 66.9952 34.7817 67.0379 34.2399 67.0849C33.706 67.0123 33.1769 66.9448 32.6327 66.8645C32.8378 66.6829 33.0444 66.4997 33.2881 66.2987C33.587 66.0506 33.9205 65.7832 34.2809 65.5042ZM22.5913 65.512C23.4052 65.6952 24.2371 65.8745 25.0959 66.0482C25.894 66.4039 26.6708 66.7408 27.4381 67.0631C27.5012 67.2056 27.5556 67.3358 27.603 67.4593C26.4957 67.4759 25.525 67.4499 24.6598 67.3978C23.9264 66.9384 23.1205 66.3943 22.2293 65.7388C22.339 65.6662 22.4572 65.5907 22.5913 65.512ZM46.9185 65.902C46.8633 65.9383 46.8057 65.9801 46.7529 66.0164C46.7213 65.9943 46.6898 65.969 46.6575 65.9461C46.7426 65.9303 46.8333 65.917 46.9185 65.902ZM21.8122 66.0524C22.4462 66.5209 23.0471 66.9451 23.6118 67.3238C22.6528 67.2146 21.9415 67.0362 21.63 66.8363C21.462 66.7286 21.4257 66.6538 21.4249 66.5779C21.4249 66.5022 21.4801 66.3528 21.6876 66.1521C21.7191 66.1213 21.7751 66.085 21.8122 66.0524ZM45.9587 66.0697C46.0889 66.1548 46.2048 66.2355 46.3105 66.3135C45.3878 66.9266 44.5597 67.4317 43.8035 67.856C42.9376 67.867 41.9668 67.8426 40.8604 67.7734C40.9156 67.6531 40.9723 67.526 41.0433 67.3877C41.8248 67.102 42.619 66.8028 43.4336 66.4851C44.2987 66.3525 45.1378 66.2139 45.9587 66.0697ZM27.7552 66.5592C28.3853 66.6738 29.013 66.7914 29.6486 66.8982C30.2835 67.0051 30.9159 67.1012 31.5492 67.1992C31.5176 67.2307 31.4782 67.2662 31.4482 67.2966C30.8 67.3376 30.1738 67.37 29.5634 67.3962C28.9964 67.1726 28.4176 66.9379 27.8214 66.6885C27.8056 66.6491 27.7741 66.6 27.7583 66.5592H27.7552ZM46.7103 66.644C46.7497 66.6787 46.801 66.7197 46.831 66.752C47.0265 66.9624 47.077 67.1127 47.0731 67.1886C47.0731 67.2643 47.0257 67.3368 46.857 67.4364C46.5368 67.6212 45.8184 67.7671 44.8563 67.8306C45.4367 67.4797 46.0565 67.081 46.7103 66.644ZM40.7523 66.8686C40.7287 66.908 40.705 66.9549 40.6813 66.9936C40.0725 67.2146 39.4826 67.4221 38.9054 67.6187C38.2974 67.5635 37.6751 67.5012 37.0316 67.4301C37.008 67.3977 36.9607 67.3599 36.9323 67.3263C37.5687 67.2584 38.2043 67.193 38.8439 67.1164C39.4834 67.0399 40.1183 66.9532 40.7531 66.8686H40.7523ZM28.0943 67.3411C28.1731 67.3742 28.2567 67.4105 28.3348 67.4428C28.2717 67.4428 28.1999 67.4507 28.1368 67.4507C28.1211 67.4175 28.1132 67.3766 28.0895 67.3426L28.0943 67.3411ZM34.232 67.5869C35.0995 67.7038 35.9441 67.8071 36.773 67.9005C36.8731 68.0185 36.9599 68.1286 37.0395 68.2331C35.9812 68.5614 35.0427 68.8104 34.1981 69.0043C33.3646 68.7705 32.4395 68.4753 31.3993 68.0976C31.4829 67.9972 31.5768 67.8924 31.6825 67.7797C32.5137 67.7261 33.3606 67.6622 34.232 67.5869ZM40.3761 67.6311C40.3683 67.665 40.3367 67.706 40.3288 67.7392C40.2657 67.7313 40.1963 67.7274 40.1325 67.7218C40.2129 67.6934 40.2973 67.6595 40.3777 67.6307L40.3761 67.6311ZM30.9735 67.8239C30.9498 67.8523 30.9183 67.8854 30.8946 67.9129C30.8315 67.8908 30.7692 67.8639 30.7085 67.841C30.7937 67.8332 30.8852 67.8292 30.9711 67.8237L30.9735 67.8239ZM25.5557 67.9468C26.2355 67.9665 26.9736 67.9688 27.7623 67.9554C27.7701 68.0036 27.7938 68.0669 27.8096 68.1102C27.8569 68.3927 27.8175 68.5465 27.778 68.608C27.7307 68.6695 27.6589 68.7087 27.4602 68.6992C27.0904 68.6811 26.4058 68.4157 25.5612 67.947L25.5557 67.9468ZM37.478 67.9784C37.5632 67.987 37.6538 67.9988 37.7374 68.0083C37.6744 68.028 37.6105 68.0525 37.549 68.0722C37.5253 68.0431 37.5016 68.0091 37.478 67.9789V67.9784ZM40.679 68.2622C41.4644 68.3135 42.201 68.3468 42.88 68.3598C42.0149 68.7868 41.3193 69.0206 40.9503 69.0207C40.7507 69.0208 40.6782 68.9781 40.6364 68.9148C40.5891 68.8509 40.5654 68.6945 40.6364 68.4148C40.6443 68.3714 40.6758 68.3101 40.6837 68.2622H40.679ZM31.0855 68.5143C31.8236 68.7847 32.5223 69.0245 33.169 69.2284C32.2195 69.3936 31.4861 69.4214 31.132 69.3174C30.9412 69.2614 30.8852 69.1995 30.8639 69.1267C30.8402 69.0542 30.856 68.8962 30.9948 68.6458C31.0184 68.6071 31.0579 68.556 31.0855 68.5143ZM37.3313 68.6627C37.355 68.7053 37.3944 68.759 37.4165 68.7983C37.5434 69.055 37.549 69.214 37.5237 69.2856C37.5001 69.3574 37.4409 69.4166 37.2469 69.4636C36.8881 69.5506 36.1586 69.4873 35.2186 69.2771C35.8747 69.1045 36.5813 68.8974 37.3313 68.6627Z" fill="#570026"/>
<path d="M45.12 25.25C45.18 25.25 45.21 25.31 45.21 25.43C45.21 25.55 45.18 25.61 45.12 25.61C44.28 25.61 43.67 25.84 43.29 26.3C42.91 26.76 42.72 27.51 42.72 28.55V44.36C42.72 44.4 42.67 44.43 42.57 44.45C42.47 44.47 42.4 44.46 42.36 44.42L28.56 27.71L28.29 27.41V40.73C28.29 41.77 28.47 42.52 28.83 42.98C29.21 43.42 29.81 43.64 30.63 43.64C30.69 43.64 30.72 43.7 30.72 43.82C30.72 43.94 30.69 44 30.63 44C30.13 44 29.75 43.99 29.49 43.97L27.99 43.94L26.46 43.97C26.18 43.99 25.77 44 25.23 44C25.19 44 25.17 43.94 25.17 43.82C25.17 43.7 25.19 43.64 25.23 43.64C26.09 43.64 26.7 43.42 27.06 42.98C27.42 42.52 27.6 41.77 27.6 40.73V26.69C26.82 25.97 26.03 25.61 25.23 25.61C25.17 25.61 25.14 25.55 25.14 25.43C25.14 25.31 25.17 25.25 25.23 25.25L26.34 25.28C26.58 25.3 26.91 25.31 27.33 25.31C27.77 25.31 28.13 25.3 28.41 25.28C28.69 25.26 28.91 25.25 29.07 25.25C29.23 25.25 29.34 25.29 29.4 25.37C29.48 25.43 29.6 25.58 29.76 25.82C30 26.18 30.24 26.51 30.48 26.81L42.03 41V28.55C42.03 27.51 41.85 26.76 41.49 26.3C41.15 25.84 40.57 25.61 39.75 25.61C39.71 25.61 39.69 25.55 39.69 25.43C39.69 25.31 39.71 25.25 39.75 25.25L40.92 25.28C41.52 25.32 42.01 25.34 42.39 25.34C42.75 25.34 43.25 25.32 43.89 25.28L45.12 25.25Z" fill="#570026"/>
</svg>
